<?xml version="1.0" standalone="no"?>
<!DOCTYPE svg PUBLIC "-//W3C//DTD SVG 1.1//EN" "http://www.w3.org/Graphics/SVG/1.1/DTD/svg11.dtd" >
<svg xmlns="http://www.w3.org/2000/svg">
<metadata>
Created by FontPrep 20130207 at Sun Nov 18 20:23:17 2018
 By Maxx Crawford
Copyright (c) Datto, Inc. All rights reserved.
</metadata>
<defs>
<font id="1d957c29f2426a1693769174fedba9e7" horiz-adv-x='1024' >
  <font-face 
    font-family="D-DINCondensed"
    font-weight="400"
    font-stretch="condensed"
    units-per-em="2048"
    panose-1="2 11 5 6 3 2 2 3 2 4"
    ascent="1702"
    descent="-346"
    x-height="1059"
    cap-height="1413"
    bbox="-266 -344 1919 1827"
    underline-thickness="102"
    underline-position="-205"
    unicode-range="U+000D-FB02"
  />
<missing-glyph horiz-adv-x="1228" 
d="M950 70v1273h-674v-1273h674zM207 1413h813v-1413h-813v1413z" />
    <glyph glyph-name="fi" unicode="fi" horiz-adv-x="997" 
d="M723 1411h141v-184h-141v184zM723 1059h139v-1059h-139v1059zM346 1155v-96h182v-109h-182v-950h-139v950h-127v109h127v78q1 135 69 205t199 71h53v-110h-41q-75 0 -108 -35t-33 -113z" />
    <glyph glyph-name="fl" unicode="fl" horiz-adv-x="1069" 
d="M711 1413h141v-1126q0 -162 145 -162h31v-125h-35q-137 0 -210 72t-72 209v1132zM346 1155v-96h182v-109h-182v-950h-139v950h-127v109h127v78q1 135 69 205t199 71h53v-110h-41q-75 0 -108 -35t-33 -113z" />
    <glyph glyph-name=".notdef" horiz-adv-x="1228" 
d="M950 70v1273h-674v-1273h674zM207 1413h813v-1413h-813v1413z" />
    <glyph glyph-name=".null" horiz-adv-x="0" 
 />
    <glyph glyph-name="nonmarkingreturn" unicode="&#xd;" horiz-adv-x="358" 
 />
    <glyph glyph-name="space" unicode=" " horiz-adv-x="358" 
 />
    <glyph glyph-name="exclam" unicode="!" horiz-adv-x="417" 
d="M129 199h160v-199h-160v199zM121 1413h176l-31 -1012h-116z" />
    <glyph glyph-name="quotedbl" unicode="&#x22;" horiz-adv-x="573" 
d="M350 1413h139v-475h-139v475zM84 1413h139v-475h-139v475z" />
    <glyph glyph-name="numbersign" unicode="#" horiz-adv-x="946" 
d="M604 872h-239l-33 -292h239zM864 580v-123h-172l-51 -457h-133l51 457h-242l-51 -457h-133l51 457h-143v123h156l32 292h-145v123h160l45 418h135l-47 -418h241l46 418h135l-47 -418h153v-123h-166l-32 -292h157z" />
    <glyph glyph-name="dollar" unicode="$" horiz-adv-x="761" 
d="M551 385q0 84 -28 133t-89 84v-424q117 35 117 207zM194 1025q0 -81 32 -129t100 -81v408q-64 -13 -98 -65t-34 -133zM434 -147h-108v200q-260 20 -273 346h142q10 -190 131 -223v477l-23 11q-135 57 -190 135q-55 77 -55 219t72 230q73 88 196 102v192h108v-194
q221 -35 240 -344h-127q-6 178 -113 213v-445q130 -55 192 -142q62 -86 62 -232t-64 -235q-65 -89 -190 -108v-202z" />
    <glyph glyph-name="percent" unicode="%" horiz-adv-x="1415" 
d="M1208 244v370q0 70 -16 100t-57 30t-58 -30q-16 -30 -16 -100v-370q0 -72 16 -103q15 -31 57 -31t58 31t16 103zM1350 244q0 -262 -215 -260q-111 -1 -163 64t-52 196v370q0 256 215 256q111 0 163 -63t52 -193v-370zM356 801v370q0 70 -16 100q-16 29 -57 29t-58 -29
q-16 -30 -16 -100v-370q0 -72 16 -103q15 -31 57 -31t58 31t16 103zM899 1413h129l-508 -1413h-129zM498 801q0 -262 -215 -260q-111 -1 -163 64t-52 196v370q0 256 215 256q111 0 163 -63t52 -193v-370z" />
    <glyph glyph-name="ampersand" unicode="&#x26;" horiz-adv-x="1062" 
d="M252 302q0 -83 44 -132t112 -49t118 36q51 36 111 128l-209 356q-96 -106 -136 -181t-40 -158zM342 1168q0 -58 23 -116t90 -171q84 96 113 153q30 57 30 125t-34 108t-93 40t-94 -41q-35 -40 -35 -98zM102 282q0 126 58 232t192 254q-85 136 -123 224q-37 88 -36 159
q0 127 77 205q78 78 200 78t199 -78t76 -205q0 -92 -47 -181t-168 -218l193 -328l111 184l110 -71l-145 -240l57 -98q20 -35 38 -48t44 -14h23v-139h-68q-51 0 -80 19t-59 73l-41 68q-119 -178 -310 -178q-139 0 -220 88t-81 214z" />
    <glyph glyph-name="quotesingle" unicode="'" horiz-adv-x="307" 
d="M84 1413h139v-475h-139v475z" />
    <glyph glyph-name="parenleft" unicode="(" horiz-adv-x="530" 
d="M244 670q0 -431 184 -842h-121q-203 404 -204 844t204 844h121q-184 -415 -184 -846z" />
    <glyph glyph-name="parenright" unicode=")" horiz-adv-x="530" 
d="M287 670q0 433 -185 846h121q205 -404 205 -844t-205 -844h-121q185 409 185 842z" />
    <glyph glyph-name="asterisk" unicode="*" horiz-adv-x="712" 
d="M408 838h-103v211l-155 -91l-48 80l160 92l-160 93l48 82l155 -91v199h103v-201l155 91l45 -80l-159 -93l161 -92l-47 -80l-155 91v-211z" />
    <glyph glyph-name="plus" unicode="+" horiz-adv-x="860" 
d="M780 498h-282v-281h-133v281h-283v135h283v280h133v-280h282v-135z" />
    <glyph glyph-name="comma" unicode="," horiz-adv-x="307" 
d="M84 190h139v-358l-139 -121v479z" />
    <glyph glyph-name="hyphen" unicode="-" horiz-adv-x="768" 
d="M102 778h564v-133h-564v133z" />
    <glyph glyph-name="period" unicode="." horiz-adv-x="327" 
d="M84 182h160v-182h-160v182z" />
    <glyph glyph-name="slash" unicode="/" horiz-adv-x="606" 
d="M371 1413h133l-268 -1433h-134z" />
    <glyph glyph-name="zero" unicode="0" horiz-adv-x="825" 
d="M569 1034q0 145 -33 205q-34 59 -122 59t-123 -59t-35 -205v-655q0 -145 35 -205t123 -59q88 0 122 59t33 205v655zM106 356v703q0 373 306 373t307 -373v-703q0 -375 -305 -374q-308 -1 -308 374z" />
    <glyph glyph-name="one" unicode="1" horiz-adv-x="561" 
d="M426 1413v-1413h-137v1239l-209 -164v174l209 164h137z" />
    <glyph glyph-name="two" unicode="2" horiz-adv-x="802" 
d="M557 1112q0 186 -162 186q-71 0 -111 -48t-40 -136v-82h-148v96q0 140 82 222t223 82t223 -82t83 -220v-75q0 -88 -23 -158t-72 -154l-344 -610h432v-133h-604v119l391 694q70 118 70 242v57z" />
    <glyph glyph-name="three" unicode="3" horiz-adv-x="829" 
d="M96 279v90h148v-78q0 -84 43 -130t123 -46t122 49t41 139v158q0 102 -41 154t-133 53h-59v133h59q90 0 129 50t39 148v111q0 92 -42 140q-43 48 -119 48t-117 -46t-41 -130v-82h-148v84q0 144 80 226t228 82t228 -80q79 -80 79 -226v-120q0 -102 -34 -164t-114 -101
q88 -41 122 -107t34 -175v-150q0 -159 -82 -243q-81 -84 -233 -84t-232 77q-80 78 -80 220z" />
    <glyph glyph-name="four" unicode="4" horiz-adv-x="851" 
d="M778 285h-125v-285h-149v285h-430v133l297 995h149l-301 -995h285v370h149v-370h125v-133z" />
    <glyph glyph-name="five" unicode="5" horiz-adv-x="815" 
d="M709 324q0 -342 -303 -342q-146 -1 -223 80t-77 237v37h142v-35q0 -186 155 -186q80 0 118 49t38 153v254q0 103 -37 153t-116 50q-102 0 -156 -100h-127v739h573v-139h-434v-434q63 67 172 67q274 0 275 -334v-249z" />
    <glyph glyph-name="six" unicode="6" horiz-adv-x="808" 
d="M563 303v221q0 90 -41 140q-40 50 -116 49q-76 0 -118 -47t-42 -134v-227q0 -92 41 -141t117 -49t118 49q41 49 41 139zM430 844q131 0 207 -82t76 -225v-232q0 -151 -84 -237q-83 -86 -225 -86t-225 88t-83 239v205q0 86 15 146q14 60 51 149l254 604h149l-248 -598
q39 29 113 29z" />
    <glyph glyph-name="seven" unicode="7" horiz-adv-x="739" 
d="M676 1413v-133l-381 -1280h-150l383 1280h-465v133h613z" />
    <glyph glyph-name="eight" unicode="8" horiz-adv-x="825" 
d="M244 317q0 -208 168 -208q170 -1 170 208v154q0 207 -169 207t-169 -207v-154zM573 1124q0 84 -43 132q-42 48 -118 48t-118 -48q-42 -50 -42 -132v-131q0 -90 41 -140t121 -50t120 51t39 139v131zM106 313v156q0 197 142 272q-63 35 -98 102t-35 150v131q0 140 81 224
t217 84t217 -84t81 -224v-131q0 -87 -35 -153t-98 -99q141 -76 141 -272v-156q0 -155 -81 -243q-82 -88 -226 -88t-225 88t-81 243z" />
    <glyph glyph-name="nine" unicode="9" horiz-adv-x="808" 
d="M563 881v227q0 92 -41 141q-42 49 -118 49t-117 -49t-41 -139v-221q0 -90 41 -139t117 -49t118 47q41 47 41 133zM96 877v231q0 152 84 238t226 86t225 -88q82 -88 82 -240v-205q-1 -86 -15 -146t-51 -149l-254 -604h-149l250 598q-36 -27 -115 -29q-131 0 -207 82
t-76 226z" />
    <glyph glyph-name="colon" unicode=":" horiz-adv-x="327" 
d="M84 874h160v-182h-160v182zM84 182h160v-182h-160v182z" />
    <glyph glyph-name="semicolon" unicode=";" horiz-adv-x="327" 
d="M84 874h160v-182h-160v182zM100 190h140v-358l-140 -121v479z" />
    <glyph glyph-name="less" unicode="&#x3c;" horiz-adv-x="860" 
d="M82 500v131l698 284v-137l-528 -213l528 -213v-137z" />
    <glyph glyph-name="equal" unicode="=" horiz-adv-x="860" 
d="M82 440h698v-135h-698v135zM82 821h698v-133h-698v133z" />
    <glyph glyph-name="greater" unicode="&#x3e;" horiz-adv-x="860" 
d="M82 352l528 213l-528 213v137l698 -284v-131l-698 -285v137z" />
    <glyph glyph-name="question" unicode="?" horiz-adv-x="743" 
d="M285 199h159v-199h-159v199zM291 504q0 68 13 114t58 123l87 144q39 67 54 111t15 108q0 197 -151 196q-88 0 -122 -59t-34 -192h-150q0 385 304 385q147 0 225 -88t78 -242q0 -76 -22 -135t-79 -160l-75 -127q-33 -55 -42 -92t-10 -96v-129h-149v139z" />
    <glyph glyph-name="at" unicode="@" horiz-adv-x="1503" 
d="M881 424v293q0 86 -31 131q-30 45 -102 45t-101 -45t-29 -129v-297q0 -88 30 -134t102 -46t101 48q30 48 30 134zM770 -262q-426 0 -590 324q-78 155 -78 364v315q0 203 80 357t226 236t341 83q194 0 342 -83q148 -82 229 -232t81 -342v-318q0 -162 -69 -244t-193 -83
q-78 0 -135 35t-84 98q-58 -135 -211 -133q-232 0 -232 305v301q0 145 53 222q54 77 174 77t177 -94v78h139v-623q0 -70 34 -107q34 -36 94 -36q120 1 120 190v330q0 246 -138 390t-382 144q-242 0 -376 -145t-134 -406v-313q0 -266 134 -416t378 -149q207 0 358 104
l66 -102q-184 -127 -404 -127z" />
    <glyph glyph-name="A" unicode="A" horiz-adv-x="944" 
d="M645 489l-174 699l-174 -699h348zM678 360h-414l-90 -360h-156l385 1413h138l385 -1413h-158z" />
    <glyph glyph-name="B" unicode="B" horiz-adv-x="962" 
d="M272 666v-533h201q123 0 178 66t56 200q0 266 -234 267h-201zM272 1280v-481h199q221 0 221 237q0 132 -52 188t-167 56h-201zM856 389q0 -193 -89 -291t-282 -98h-362v1413h360q187 0 273 -91t86 -278q0 -242 -187 -311q201 -55 201 -344z" />
    <glyph glyph-name="C" unicode="C" 
d="M106 1001q0 215 106 323t276 108q172 0 278 -102t106 -310v-19h-149v15q-1 145 -63 213q-62 67 -174 67q-230 -1 -230 -309v-577q0 -291 238 -291q106 0 168 67q61 68 61 207v19h145v-21q0 -205 -104 -306t-274 -101t-277 107q-106 108 -107 321v589z" />
    <glyph glyph-name="D" unicode="D" horiz-adv-x="976" 
d="M721 971q0 309 -232 309h-217v-1147h217q111 0 171 74t61 219v545zM123 1413h366q173 0 277 -106t104 -322v-557q0 -212 -104 -320t-277 -108h-366v1413z" />
    <glyph glyph-name="E" unicode="E" horiz-adv-x="825" 
d="M270 1280v-494h414v-135h-414v-518h482v-133h-629v1413h629v-133h-482z" />
    <glyph glyph-name="F" unicode="F" horiz-adv-x="813" 
d="M272 1280v-500h414v-135h-414v-645h-149v1413h629v-133h-480z" />
    <glyph glyph-name="G" unicode="G" 
d="M492 119q231 0 231 284v197h-234v125h383v-315q0 -214 -104 -320t-278 -106t-278 107q-105 108 -106 321v589q0 215 106 323t278 108t277 -102t105 -290v-24h-149v24q-1 123 -63 190t-168 66q-236 0 -236 -309v-577q0 -291 236 -291z" />
    <glyph glyph-name="H" unicode="H" 
d="M856 1413v-1413h-149v653h-435v-653h-149v1413h149v-627h435v627h149z" />
    <glyph glyph-name="I" unicode="I" horiz-adv-x="417" 
d="M135 1413h148v-1413h-148v1413z" />
    <glyph glyph-name="J" unicode="J" horiz-adv-x="538" 
d="M109 133q145 0 145 164v1116h149v-1132q-1 -137 -73 -209t-209 -72h-72v133h60z" />
    <glyph glyph-name="K" unicode="K" horiz-adv-x="944" 
d="M272 0h-149v1413h149v-786l453 786h158l-340 -575l389 -838h-164l-315 686l-181 -307v-379z" />
    <glyph glyph-name="L" unicode="L" horiz-adv-x="800" 
d="M123 1413h149v-1280h480v-133h-629v1413z" />
    <glyph glyph-name="M" unicode="M" horiz-adv-x="1224" 
d="M1102 1413v-1413h-150v1085l-290 -757h-99l-291 751v-1079h-149v1413h149l342 -872l338 872h150z" />
    <glyph glyph-name="N" unicode="N" horiz-adv-x="1028" 
d="M905 1413v-1413h-149l-484 1085v-1085h-149v1413h149l484 -1087v1087h149z" />
    <glyph glyph-name="O" unicode="O" 
d="M723 987q0 311 -231 309q-119 0 -178 -75q-58 -76 -58 -234v-577q0 -291 236 -291q111 -1 171 72t60 219v577zM106 1001q0 217 104 323t279 108q175 0 279 -106t104 -325v-589q0 -213 -105 -321t-279 -108t-277 108q-104 108 -105 321v589z" />
    <glyph glyph-name="P" unicode="P" horiz-adv-x="901" 
d="M481 1280h-209v-549h209q115 1 169 64t54 208t-54 211t-169 66zM852 1001q0 -403 -363 -403h-217v-598h-149v1413h366q189 0 276 -103t87 -309z" />
    <glyph glyph-name="Q" unicode="Q" 
d="M723 987q0 311 -231 309q-119 0 -178 -75q-58 -76 -58 -234v-577q0 -291 236 -291q111 1 171 73t60 218v577zM872 412q0 -281 -180 -379l115 -277l-123 -49l-117 283q-37 -6 -78 -6q-174 0 -278 108t-105 320v589q0 217 104 323t279 108q175 0 279 -106t104 -325v-589z
" />
    <glyph glyph-name="R" unicode="R" horiz-adv-x="954" 
d="M272 750h222q108 0 158 66t50 199t-48 199t-160 66h-222v-530zM272 618v-618h-149v1413h373q186 0 271 -98t85 -301q0 -303 -209 -373l250 -641h-160l-233 618h-228z" />
    <glyph glyph-name="S" unicode="S" horiz-adv-x="872" 
d="M217 1065q0 -99 48 -157t165 -103l84 -33q141 -55 213 -145t72 -264q-1 -173 -97 -275t-277 -102q-362 0 -372 401h146q6 -143 64 -205t168 -63q218 0 218 254q0 113 -48 170t-173 108l-82 33q-139 55 -209 141q-69 86 -69 245t97 261q97 103 263 103t260 -96t103 -285
h-142q-14 248 -219 247q-213 0 -213 -235z" />
    <glyph glyph-name="T" unicode="T" horiz-adv-x="753" 
d="M741 1280h-290v-1280h-148v1280h-291v133h729v-133z" />
    <glyph glyph-name="U" unicode="U" horiz-adv-x="983" 
d="M123 360v1053h149v-1044q0 -121 58 -186t162 -65q102 0 160 66t59 185v1044h149v-1053q0 -170 -102 -273t-266 -103q-107 0 -191 47t-131 133t-47 196z" />
    <glyph glyph-name="V" unicode="V" horiz-adv-x="866" 
d="M18 1413h160l256 -1180l254 1180h160l-342 -1413h-144z" />
    <glyph glyph-name="W" unicode="W" horiz-adv-x="1341" 
d="M1323 1413l-274 -1413h-160l-217 1192l-215 -1192h-160l-279 1413h156l205 -1188l199 1188h196l201 -1188l201 1188h147z" />
    <glyph glyph-name="X" unicode="X" horiz-adv-x="851" 
d="M340 733l-295 680h168l215 -530l211 530h168l-297 -678l324 -735h-170l-238 586l-240 -586h-168z" />
    <glyph glyph-name="Y" unicode="Y" horiz-adv-x="802" 
d="M475 0h-147v588l-310 825h164l219 -647l220 647h163l-309 -825v-588z" />
    <glyph glyph-name="Z" unicode="Z" horiz-adv-x="788" 
d="M733 133v-133h-672v133l510 1147h-487v133h635v-133l-512 -1147h526z" />
    <glyph glyph-name="bracketleft" unicode="[" horiz-adv-x="518" 
d="M123 1516h293v-134h-152v-1421h152v-133h-293v1688z" />
    <glyph glyph-name="backslash" unicode="\" horiz-adv-x="606" 
d="M102 1413h134l268 -1433h-133z" />
    <glyph glyph-name="bracketright" unicode="]" horiz-adv-x="516" 
d="M102 -39h150v1421h-150v134h291v-1688h-291v133z" />
    <glyph glyph-name="asciicircum" unicode="^" horiz-adv-x="860" 
d="M362 1413h134l290 -840h-135l-221 656l-223 -656h-133z" />
    <glyph glyph-name="underscore" unicode="_" horiz-adv-x="851" 
d="M0 -111h852v-102h-852v102z" />
    <glyph glyph-name="grave" unicode="`" horiz-adv-x="1026" 
d="M551 1180l-223 264h151l187 -264h-115z" />
    <glyph glyph-name="a" unicode="a" horiz-adv-x="821" 
d="M561 303v197h-149q-190 0 -190 -198t163 -198q84 1 130 53t46 146zM700 0h-133v98q-72 -114 -209 -114q-136 0 -206 83t-70 229t81 227t234 81h164v170q0 178 -164 178q-77 0 -117 -41t-40 -114v-17h-131v19q1 129 79 203t218 73q140 0 217 -81q78 -81 77 -226v-768z" />
    <glyph glyph-name="b" unicode="b" horiz-adv-x="843" 
d="M260 358q0 -249 176 -249q82 0 124 58t42 193v338q0 252 -166 252q-176 0 -176 -254v-338zM260 0h-139v1413h139v-457q70 119 199 119t206 -89t76 -271v-371q-1 -182 -77 -271t-205 -89t-199 112v-96z" />
    <glyph glyph-name="c" unicode="c" horiz-adv-x="837" 
d="M102 344v371q0 186 84 273t235 87t233 -84t81 -254v-28h-139v28q0 213 -172 213q-90 0 -136 -57t-46 -195v-338q0 -137 46 -194t134 -57q174 0 174 213v28h139v-26q0 -170 -82 -255q-83 -85 -233 -85t-234 87t-84 273z" />
    <glyph glyph-name="d" unicode="d" horiz-adv-x="843" 
d="M408 109q176 0 176 249v338q0 254 -176 254q-166 0 -166 -252v-338q0 -135 42 -193t124 -58zM102 344v371q0 182 77 271t206 89t199 -119v457h139v-1413h-139v96q-70 -112 -199 -112t-206 89t-77 271z" />
    <glyph glyph-name="e" unicode="e" horiz-adv-x="835" 
d="M242 698v-104h354v108q0 248 -178 248q-86 0 -131 -58t-45 -194zM242 487v-125q0 -139 48 -198t136 -60q168 0 168 211v9h137v-7q0 -165 -81 -249t-228 -84q-319 0 -320 376v342q0 184 83 278t231 95q148 0 232 -94q85 -94 85 -279v-215h-491z" />
    <glyph glyph-name="f" unicode="f" horiz-adv-x="589" 
d="M346 1155v-96h182v-109h-182v-950h-139v950h-127v109h127v78q1 135 69 205t199 71h53v-110h-41q-75 0 -108 -35t-33 -113z" />
    <glyph glyph-name="g" unicode="g" horiz-adv-x="843" 
d="M584 440v258q0 252 -176 252q-166 0 -166 -250v-260q0 -135 42 -192t124 -58q176 2 176 250zM420 -211q164 0 164 231v156q-68 -110 -198 -110t-207 89t-77 269v293q0 180 77 269t207 89t198 -119v103h139v-1026q0 -168 -77 -266q-77 -99 -225 -99t-225 72t-81 197h133
q4 -68 47 -108t125 -40z" />
    <glyph glyph-name="h" unicode="h" horiz-adv-x="851" 
d="M121 1413h139v-446q33 51 87 80t118 28q127 0 197 -81t69 -228v-766h-139v760q0 92 -45 141t-120 49t-121 -49t-46 -141v-760h-139v1413z" />
    <glyph glyph-name="i" unicode="i" horiz-adv-x="407" 
d="M133 1411h141v-184h-141v184zM133 1059h139v-1059h-139v1059z" />
    <glyph glyph-name="j" unicode="j" horiz-adv-x="399" 
d="M-51 -186h31q145 0 145 161v1084h141v-1090q0 -137 -72 -209t-210 -71h-35v125zM125 1411h141v-184h-141v184z" />
    <glyph glyph-name="k" unicode="k" horiz-adv-x="837" 
d="M260 0h-139v1413h139v-905l354 551h154l-279 -408l318 -651h-160l-244 524l-143 -211v-313z" />
    <glyph glyph-name="l" unicode="l" horiz-adv-x="479" 
d="M121 281v1132h141v-1126q0 -162 146 -162h30v-125h-35q-136 0 -209 72t-73 209z" />
    <glyph glyph-name="m" unicode="m" horiz-adv-x="1323" 
d="M258 963q68 112 211 112q72 0 131 -36t94 -97q82 133 226 133q143 0 213 -81t69 -228v-766h-141v760q0 92 -44 141t-119 49t-121 -50t-46 -138v-762h-139v760q0 90 -45 140t-120 50t-120 -50t-45 -140v-760h-141v1059h137v-96z" />
    <glyph glyph-name="n" unicode="n" horiz-adv-x="851" 
d="M121 1059h135v-96q31 51 86 81t123 31q127 0 197 -82t69 -227v-766h-139v760q0 92 -45 141t-120 49t-121 -50t-46 -140v-760h-139v1059z" />
    <glyph glyph-name="o" unicode="o" horiz-adv-x="837" 
d="M596 360v338q0 136 -45 194t-131 58t-132 -57t-46 -195v-338q0 -137 46 -194t132 -57t131 58t45 193zM102 344v371q0 186 84 273t234 87t232 -88q83 -88 83 -272v-371q0 -184 -83 -272q-82 -88 -232 -88t-234 87t-84 273z" />
    <glyph glyph-name="p" unicode="p" horiz-adv-x="843" 
d="M260 358q0 -249 176 -249q82 0 124 58t42 193v338q0 252 -166 252q-176 0 -176 -254v-338zM121 1059h139v-103q70 119 199 119t206 -89t76 -271v-371q-1 -182 -77 -271t-205 -89t-199 110v-405h-139v1370z" />
    <glyph glyph-name="q" unicode="q" horiz-adv-x="843" 
d="M408 109q176 0 176 249v338q0 254 -176 254q-166 0 -166 -252v-338q0 -135 42 -193t124 -58zM102 344v371q0 182 77 271t206 89t199 -119v103h139v-1370h-139v405q-70 -110 -199 -110t-206 89t-77 271z" />
    <glyph glyph-name="r" unicode="r" horiz-adv-x="593" 
d="M451 950q-83 0 -137 -53t-54 -145v-752h-139v1059h135v-105q71 123 221 121q43 0 76 -8v-135q-55 18 -102 18z" />
    <glyph glyph-name="s" unicode="s" horiz-adv-x="782" 
d="M82 285v12h129v-12q0 -86 49 -132q49 -47 132 -47t131 42t48 119t-32 116q-33 39 -111 72l-133 55q-203 84 -203 276q0 131 83 210t222 79t220 -80t81 -215v-26h-129v12q0 90 -45 139t-125 49t-124 -42t-44 -106t29 -106t100 -71l134 -56q108 -45 162 -108t54 -192
t-84 -209q-86 -80 -232 -80t-229 81t-83 220z" />
    <glyph glyph-name="t" unicode="t" horiz-adv-x="604" 
d="M330 285q0 -162 157 -162h29v-123h-35q-291 0 -291 279v671h-135v109h135v221l140 63v-284h202v-109h-202v-665z" />
    <glyph glyph-name="u" unicode="u" horiz-adv-x="851" 
d="M121 326v733h139v-639q0 -168 34 -240t134 -71q68 1 102 31t49 96q13 66 13 184v639h139v-733q0 -172 -75 -257t-230 -85t-230 85t-75 257z" />
    <glyph glyph-name="v" unicode="v" horiz-adv-x="759" 
d="M31 1059h151l199 -838l197 838h151l-280 -1059h-140z" />
    <glyph glyph-name="w" unicode="w" horiz-adv-x="1181" 
d="M31 1059h151l160 -834l186 834h119l191 -834l159 834h154l-244 -1059h-133l-186 801l-182 -801h-136z" />
    <glyph glyph-name="x" unicode="x" horiz-adv-x="714" 
d="M535 0l-181 393l-176 -393h-147l252 551l-234 508h150l161 -350l154 350h150l-236 -500l256 -559h-149z" />
    <glyph glyph-name="y" unicode="y" horiz-adv-x="759" 
d="M113 -315h-21v125h35q80 0 123 30t59 103l8 32l-286 1084h151l201 -809l195 809h151l-309 -1159q-31 -119 -105 -167t-202 -48z" />
    <glyph glyph-name="z" unicode="z" horiz-adv-x="770" 
d="M668 127v-127h-566v127l416 805h-416v127h566v-127l-416 -805h416z" />
    <glyph glyph-name="braceleft" unicode="{" horiz-adv-x="628" 
d="M446 -172q-208 0 -208 231v398q0 81 -30 117t-106 38v129q76 2 106 38t30 122v383q0 117 51 174t157 58h80v-134h-51q-90 0 -90 -100v-348q0 -121 -24 -175t-93 -81q70 -31 94 -84t23 -174v-359q0 -100 90 -100h51v-133h-80z" />
    <glyph glyph-name="bar" unicode="|" horiz-adv-x="544" 
d="M205 1516h135v-1686h-135v1686z" />
    <glyph glyph-name="braceright" unicode="}" horiz-adv-x="628" 
d="M182 1516q209 0 209 -232v-383q0 -86 30 -122t105 -38v-129q-76 -2 -106 -38t-29 -117v-398q0 -117 -51 -174t-158 -57h-80v133h50q90 0 90 100v359q0 121 23 174q24 53 95 84q-72 27 -96 81t-22 175v348q0 100 -90 100h-50v134h80z" />
    <glyph glyph-name="asciitilde" unicode="~" horiz-adv-x="860" 
d="M302 547q-38 0 -66 -23t-64 -88l-111 68q88 184 232 184q68 0 149 -53t119 -53q37 0 64 22t63 90l111 -67q-87 -185 -232 -185q-70 2 -149 53q-78 52 -116 52z" />
    <glyph glyph-name="uni00A0" unicode="&#xa0;" horiz-adv-x="358" 
 />
    <glyph glyph-name="exclamdown" unicode="&#xa1;" horiz-adv-x="417" 
d="M160 666h116l37 -977h-188zM137 1059h160v-199h-160v199z" />
    <glyph glyph-name="cent" unicode="&#xa2;" horiz-adv-x="837" 
d="M373 946q-133 -30 -131 -248v-338q-2 -218 131 -247v833zM596 709v28q0 176 -115 205v-825q115 33 115 205v28h139v-26q-1 -152 -67 -236t-187 -100v-193h-108v191q-270 31 -271 358v371q0 170 71 258t200 100v180h108v-182q121 -16 188 -99t66 -235v-28h-139z" />
    <glyph glyph-name="sterling" unicode="&#xa3;" horiz-adv-x="784" 
d="M330 334q0 -132 -78 -199h479v-135h-643v139q51 25 71 72q19 47 19 125v285h-125v133h125v358q0 152 69 237t201 85t200 -83t67 -235h-144q0 98 -29 141q-30 43 -89 43q-123 0 -123 -155v-391h239v-133h-239v-287z" />
    <glyph glyph-name="currency" unicode="&#xa4;" horiz-adv-x="1196" 
d="M860 670q0 114 -75 190t-189 76t-186 -76q-74 -76 -74 -192t74 -191q74 -76 187 -76t188 77t75 192zM597 260q-128 0 -235 72l-139 -137l-102 104l139 137q-70 100 -70 234t72 231l-139 141l102 103l137 -139q104 72 234 72t235 -72l140 139l102 -103l-139 -139
q72 -104 72 -235t-70 -232l139 -139l-102 -104l-139 139q-109 -72 -237 -72z" />
    <glyph glyph-name="yen" unicode="&#xa5;" horiz-adv-x="796" 
d="M324 301h-248v121h248v137h-248v123h217l-277 731h170l215 -645l213 645h166l-276 -731h217v-123h-248v-137h248v-121h-248v-301h-149v301z" />
    <glyph glyph-name="brokenbar" unicode="&#xa6;" horiz-adv-x="544" 
d="M205 555h135v-725h-135v725zM205 1516h135v-721h-135v721z" />
    <glyph glyph-name="section" unicode="&#xa7;" horiz-adv-x="876" 
d="M606 565q0 119 -38 179t-129 60t-130 -60q-39 -62 -39 -180t39 -178t129 -60t129 60t39 179zM436 -213q144 0 144 172q0 72 -19 114q-18 41 -64 69t-135 53q-131 37 -185 126t-54 242q0 260 180 324q-80 33 -113 101q-32 68 -32 192t71 204t217 80t210 -85t65 -244h-141
q0 100 -29 148t-106 48t-107 -43t-31 -134q0 -91 45 -137t171 -81t178 -124t53 -249q0 -258 -176 -317q84 -35 118 -106q34 -72 33 -198q0 -126 -75 -206t-224 -80t-215 82t-65 250h141q0 -106 32 -154t113 -47z" />
    <glyph glyph-name="dieresis" unicode="&#xa8;" horiz-adv-x="1026" 
d="M592 1362h153v-176h-153v176zM281 1362h153v-176h-153v176z" />
    <glyph glyph-name="copyright" unicode="&#xa9;" horiz-adv-x="1527" 
d="M637 580q0 -187 133 -187q125 0 125 158v22h109v-22q0 -127 -62 -191t-174 -63q-240 0 -240 270v267q0 268 240 268q113 0 174 -62t62 -190v-23h-109v21q0 158 -125 158q-66 0 -100 -42t-33 -143v-241zM764 1313q-264 0 -404 -163t-141 -455q0 -291 141 -453
q140 -162 404 -162t405 163t141 455t-140 453q-142 162 -406 162zM106 697q0 218 79 380t227 249t354 87q205 0 352 -88t225 -250t78 -380t-78 -380q-78 -163 -226 -249t-353 -86t-353 88q-149 88 -227 250t-78 379z" />
    <glyph glyph-name="ordfeminine" unicode="&#xaa;" horiz-adv-x="602" 
d="M373 1083v78h-68q-49 0 -74 -20t-24 -68q0 -86 78 -86q40 0 64 26t24 70zM373 1333q0 84 -78 84t-80 -74v-10h-123v6q0 93 55 143t152 50t152 -55t55 -154v-442h-127v57q-27 -35 -55 -51t-74 -17q-86 0 -131 52t-45 144q0 91 56 140t157 49h86v78z" />
    <glyph glyph-name="guillemotleft" unicode="&#xab;" horiz-adv-x="864" 
d="M379 541l364 374v-155l-211 -219l211 -219v-156zM41 541l367 374v-155l-213 -219l213 -219v-156z" />
    <glyph glyph-name="logicalnot" unicode="&#xac;" horiz-adv-x="860" 
d="M637 541h-551v125h690v-349h-139v224z" />
    <glyph glyph-name="uni00AD" unicode="&#xad;" horiz-adv-x="768" 
d="M102 778h564v-133h-564v133z" />
    <glyph glyph-name="registered" unicode="&#xae;" horiz-adv-x="966" 
d="M487 1053q33 0 47 14q13 14 13 48t-13 47t-47 14h-47v-123h47zM367 1241h127q127 0 127 -127q0 -80 -60 -113l72 -194h-80l-64 178h-49v-178h-73v434zM772 1022q0 152 -77 238t-213 86t-212 -88t-76 -240t76 -238t213 -86t213 88t76 240zM123 1020q0 180 98 286t264 105
q167 0 263 -105q96 -104 96 -284t-98 -286t-263 -107q-166 0 -263 106q-97 105 -97 285z" />
    <glyph glyph-name="macron" unicode="&#xaf;" horiz-adv-x="1026" 
d="M276 1335h474v-125h-474v125z" />
    <glyph glyph-name="degree" unicode="&#xb0;" horiz-adv-x="720" 
d="M506 1180q0 66 -41 108t-105 43q-64 0 -104 -43q-41 -42 -41 -108t41 -108q40 -42 104 -42t105 42t41 108zM106 1180q0 110 73 182t181 72t182 -73q72 -73 72 -181t-72 -181q-72 -72 -182 -72q-108 0 -181 72t-73 181z" />
    <glyph glyph-name="plusminus" unicode="&#xb1;" horiz-adv-x="860" 
d="M82 184h698v-135h-698v135zM780 715v-135h-282v-281h-133v281h-283v135h283v280h133v-280h282z" />
    <glyph glyph-name="uni00B2" unicode="&#xb2;" horiz-adv-x="555" 
d="M346 1542q0 86 -70 84q-70 0 -69 -94v-45h-137v61q0 92 57 148t153 55q96 0 151 -56q56 -56 56 -149v-49q0 -91 -67 -192l-191 -297h258v-127h-421v123l235 364q45 70 45 133v41z" />
    <glyph glyph-name="uni00B3" unicode="&#xb3;" horiz-adv-x="548" 
d="M479 1493q0 -120 -90 -164q53 -23 74 -64q20 -42 20 -112v-72q0 -98 -58 -155q-59 -57 -157 -57t-152 54t-55 148v51h136v-47q1 -82 73 -82t72 94v74q0 51 -19 75t-63 24h-37v124h37q78 0 78 91v61q0 90 -70 90t-69 -82v-47h-138v53q1 92 57 146t153 55q97 0 153 -55
t55 -154v-49z" />
    <glyph glyph-name="acute" unicode="&#xb4;" horiz-adv-x="1026" 
d="M547 1444h151l-223 -264h-115z" />
    <glyph glyph-name="uni00B5" unicode="&#xb5;" horiz-adv-x="845" 
d="M260 -315h-139v1374h137v-764q0 -92 45 -140q45 -49 118 -49t119 50t46 139v764h139v-1059h-133v96q-64 -114 -195 -112q-86 0 -137 53v-352z" />
    <glyph glyph-name="paragraph" unicode="&#xb6;" horiz-adv-x="1064" 
d="M123 983q0 119 49 217t141 156t215 57h353v-1724h-136v1591h-147v-1591h-135v862q-154 14 -247 135t-93 297z" />
    <glyph glyph-name="periodcentered" unicode="&#xb7;" horiz-adv-x="327" 
d="M84 645h160v-182h-160v182z" />
    <glyph glyph-name="cedilla" unicode="&#xb8;" horiz-adv-x="1026" 
d="M518 25h133l-119 -336h-155z" />
    <glyph glyph-name="uni00B9" unicode="&#xb9;" horiz-adv-x="407" 
d="M315 1737v-856h-145v696l-127 -102v161l127 101h145z" />
    <glyph glyph-name="ordmasculine" unicode="&#xba;" horiz-adv-x="604" 
d="M387 1114v176q0 123 -85 123t-85 -123v-176q0 -123 85 -123t85 123zM84 1288q0 244 218 244q106 0 162 -57t56 -187v-172q0 -129 -55 -187t-162 -59q-219 0 -219 246v172z" />
    <glyph glyph-name="guillemotright" unicode="&#xbb;" horiz-adv-x="864" 
d="M459 322l213 219l-213 219v155l364 -374l-364 -375v156zM121 322l213 219l-213 219v155l366 -374l-366 -375v156z" />
    <glyph glyph-name="onequarter" unicode="&#xbc;" horiz-adv-x="1300" 
d="M1249 152h-63v-152h-144v152h-274v127l188 577h144l-189 -577h131v196h144v-196h63v-127zM913 1413l-507 -1413h-130l508 1413h129zM170 557v696l-127 -102v162l127 100h145v-856h-145z" />
    <glyph glyph-name="onehalf" unicode="&#xbd;" horiz-adv-x="1318" 
d="M1110 662q0 85 -70 83q-70 0 -69 -94v-45h-137v62q0 92 57 147t152 55t151 -56t57 -148v-50q0 -91 -67 -192l-191 -297h258v-127h-422v123l236 364q45 70 45 134v41zM784 1413h129l-507 -1413h-130zM315 1413v-856h-145v696l-127 -102v162l127 100h145z" />
    <glyph glyph-name="threequarters" unicode="&#xbe;" horiz-adv-x="1355" 
d="M1305 152h-64v-152h-143v152h-275v127l189 577h143l-188 -577h131v196h143v-196h64v-127zM1018 1413l-508 -1413h-129l508 1413h129zM479 1169q0 -121 -90 -163q53 -23 73 -65t21 -112v-71q0 -99 -58 -156q-59 -57 -157 -57t-152 54t-55 149v51h136v-47q0 -84 71 -82
q74 0 74 94v74q0 50 -19 74t-63 24h-37v125h37q78 0 78 90v61q0 90 -70 91q-69 0 -69 -82v-47h-138v53q1 92 57 146t153 54t153 -55t55 -153v-50z" />
    <glyph glyph-name="questiondown" unicode="&#xbf;" horiz-adv-x="743" 
d="M76 -2q0 78 21 139q22 61 81 162l70 117q35 59 45 96t10 96v72h150v-80q1 -72 -13 -118t-63 -126l-82 -135q-39 -63 -54 -110t-16 -113q0 -201 152 -201q88 -1 122 59t33 193h150q-4 -385 -303 -385q-147 0 -225 89t-78 245zM297 1059h160v-199h-160v199z" />
    <glyph glyph-name="Agrave" unicode="&#xc0;" horiz-adv-x="944" 
d="M469 1534l-223 264h151l187 -264h-115zM645 489l-174 699l-174 -699h348zM678 360h-414l-90 -360h-156l385 1413h138l385 -1413h-158z" />
    <glyph glyph-name="Aacute" unicode="&#xc1;" horiz-adv-x="944" 
d="M528 1798h152l-223 -264h-115zM645 489l-174 699l-174 -699h348zM678 360h-414l-90 -360h-156l385 1413h138l385 -1413h-158z" />
    <glyph glyph-name="Acircumflex" unicode="&#xc2;" horiz-adv-x="944" 
d="M406 1810h131l204 -292h-137l-129 184l-131 -184h-137zM645 489l-174 699l-174 -699h348zM678 360h-414l-90 -360h-156l385 1413h138l385 -1413h-158z" />
    <glyph glyph-name="Atilde" unicode="&#xc3;" horiz-adv-x="944" 
d="M460 1562q-62 36 -91 35q-55 0 -117 -77v147q38 39 64 54t60 15t56 -8q22 -10 65 -38q44 -28 79 -27q34 0 56 15t60 61v-144q-34 -39 -60 -54t-68 -15t-104 36zM645 489l-174 699l-174 -699h348zM678 360h-414l-90 -360h-156l385 1413h138l385 -1413h-158z" />
    <glyph glyph-name="Adieresis" unicode="&#xc4;" horiz-adv-x="944" 
d="M551 1716h154v-176h-154v176zM240 1716h153v-176h-153v176zM645 489l-174 699l-174 -699h348zM678 360h-414l-90 -360h-156l385 1413h138l385 -1413h-158z" />
    <glyph glyph-name="Aring" unicode="&#xc5;" horiz-adv-x="944" 
d="M645 489l-174 699l-174 -699h348zM472 1688q-44 0 -72 -30t-28 -75t28 -74t72 -29t72 30q28 28 27 73q0 45 -27 75q-28 30 -72 30zM291 1592q0 68 51 121q51 52 130 52t131 -52q52 -53 52 -121q0 -134 -114 -179l385 -1413h-158l-90 360h-414l-90 -360h-156l385 1413
q-112 43 -112 179z" />
    <glyph glyph-name="AE" unicode="&#xc6;" horiz-adv-x="1409" 
d="M725 483v801l-344 -801h344zM872 1280v-494h396v-135h-396v-518h463v-133h-610v352h-399l-152 -352h-156l617 1413h700v-133h-463z" />
    <glyph glyph-name="Ccedilla" unicode="&#xc7;" 
d="M723 1001v15q-1 145 -63 213q-62 67 -174 67q-230 -1 -230 -309v-577q0 -291 238 -291q106 0 168 67q61 68 61 207v19h145v-21q0 -172 -74 -271t-202 -126l-109 -305h-155l125 297q-158 12 -252 118t-95 308v589q0 215 106 323t276 108q172 0 278 -102t106 -310v-19h-149
z" />
    <glyph glyph-name="Egrave" unicode="&#xc8;" horiz-adv-x="825" 
d="M432 1534l-223 264h151l187 -264h-115zM270 1280v-494h414v-135h-414v-518h482v-133h-629v1413h629v-133h-482z" />
    <glyph glyph-name="Eacute" unicode="&#xc9;" horiz-adv-x="825" 
d="M492 1798h151l-223 -264h-115zM270 1280v-494h414v-135h-414v-518h482v-133h-629v1413h629v-133h-482z" />
    <glyph glyph-name="Ecircumflex" unicode="&#xca;" horiz-adv-x="825" 
d="M369 1810h131l205 -292h-138l-129 184l-131 -184h-137zM270 1280v-494h414v-135h-414v-518h482v-133h-629v1413h629v-133h-482z" />
    <glyph glyph-name="Edieresis" unicode="&#xcb;" horiz-adv-x="825" 
d="M514 1716h154v-176h-154v176zM203 1716h153v-176h-153v176zM270 1280v-494h414v-135h-414v-518h482v-133h-629v1413h629v-133h-482z" />
    <glyph glyph-name="Igrave" unicode="&#xcc;" horiz-adv-x="417" 
d="M205 1534l-223 264h151l186 -264h-114zM135 1413h148v-1413h-148v1413z" />
    <glyph glyph-name="Iacute" unicode="&#xcd;" horiz-adv-x="417" 
d="M264 1798h152l-223 -264h-115zM135 1413h148v-1413h-148v1413z" />
    <glyph glyph-name="Icircumflex" unicode="&#xce;" horiz-adv-x="417" 
d="M141 1810h131l205 -292h-137l-129 184l-131 -184h-137zM135 1413h148v-1413h-148v1413z" />
    <glyph glyph-name="Idieresis" unicode="&#xcf;" horiz-adv-x="417" 
d="M287 1716h153v-176h-153v176zM-25 1716h154v-176h-154v176zM135 1413h148v-1413h-148v1413z" />
    <glyph glyph-name="Eth" unicode="&#xd0;" horiz-adv-x="1034" 
d="M778 971q0 309 -231 309h-217v-496h219v-133h-219v-518h217q111 0 171 74t60 219v545zM928 428q0 -212 -104 -320t-277 -108h-367v651h-119v133h119v629h367q172 0 276 -106t105 -322v-557z" />
    <glyph glyph-name="Ntilde" unicode="&#xd1;" horiz-adv-x="1028" 
d="M619 1663q35 0 57 15t59 61v-144q-33 -39 -59 -54t-63 -15q-48 0 -110 36t-91 35q-55 0 -117 -77v147q37 39 63 54t61 15q33 0 55 -8q22 -10 66 -38t79 -27zM905 1413v-1413h-149l-484 1085v-1085h-149v1413h149l484 -1087v1087h149z" />
    <glyph glyph-name="Ograve" unicode="&#xd2;" 
d="M485 1534l-223 264h152l186 -264h-115zM723 987q0 311 -231 309q-119 0 -178 -75q-58 -76 -58 -234v-577q0 -291 236 -291q111 -1 171 72t60 219v577zM106 1001q0 217 104 323t279 108q175 0 279 -106t104 -325v-589q0 -213 -105 -321t-279 -108t-277 108
q-104 108 -105 321v589z" />
    <glyph glyph-name="Oacute" unicode="&#xd3;" 
d="M545 1798h151l-223 -264h-115zM723 987q0 311 -231 309q-119 0 -178 -75q-58 -76 -58 -234v-577q0 -291 236 -291q111 -1 171 72t60 219v577zM106 1001q0 217 104 323t279 108q175 0 279 -106t104 -325v-589q0 -213 -105 -321t-279 -108t-277 108q-104 108 -105 321v589z
" />
    <glyph glyph-name="Ocircumflex" unicode="&#xd4;" 
d="M422 1810h131l205 -292h-137l-129 184l-132 -184h-137zM723 987q0 311 -231 309q-119 0 -178 -75q-58 -76 -58 -234v-577q0 -291 236 -291q111 -1 171 72t60 219v577zM106 1001q0 217 104 323t279 108q175 0 279 -106t104 -325v-589q0 -213 -105 -321t-279 -108t-277 108
q-104 108 -105 321v589z" />
    <glyph glyph-name="Otilde" unicode="&#xd5;" 
d="M598 1663q28 0 50 15t61 61v-144q-33 -39 -60 -54t-70 -15t-90 28t-63 35q-16 8 -43 8q-52 0 -115 -77v147q37 39 64 54q26 15 60 15t56 -8q22 -10 50 -28t50 -28t50 -9zM723 987q0 311 -231 309q-119 0 -178 -75q-58 -76 -58 -234v-577q0 -291 236 -291q111 -1 171 72
t60 219v577zM106 1001q0 217 104 323t279 108q175 0 279 -106t104 -325v-589q0 -213 -105 -321t-279 -108t-277 108q-104 108 -105 321v589z" />
    <glyph glyph-name="Odieresis" unicode="&#xd6;" 
d="M567 1716h154v-176h-154v176zM256 1716h154v-176h-154v176zM723 987q0 311 -231 309q-119 0 -178 -75q-58 -76 -58 -234v-577q0 -291 236 -291q111 -1 171 72t60 219v577zM106 1001q0 217 104 323t279 108q175 0 279 -106t104 -325v-589q0 -213 -105 -321t-279 -108
t-277 108q-104 108 -105 321v589z" />
    <glyph glyph-name="multiply" unicode="&#xd7;" horiz-adv-x="860" 
d="M129 352l213 213l-213 213l90 88l213 -211l211 211l88 -88l-211 -213l211 -213l-88 -88l-211 213l-213 -213z" />
    <glyph glyph-name="Oslash" unicode="&#xd8;" 
d="M723 410v577q0 61 -8 100l-398 -899q57 -70 171 -70q234 2 235 292zM256 987v-577q0 -60 8 -99l400 908q-57 77 -174 77t-176 -75q-58 -76 -58 -234zM872 412q0 -213 -105 -321t-278 -107q-135 0 -231 67l-41 -92h-108l73 168q-76 109 -76 285v589q0 217 104 323t264 108
q158 0 253 -70l41 92h109l-76 -172q72 -106 71 -281v-589z" />
    <glyph glyph-name="Ugrave" unicode="&#xd9;" horiz-adv-x="983" 
d="M487 1534l-223 264h152l186 -264h-115zM123 360v1053h149v-1044q0 -121 58 -186t162 -65q102 0 160 66t59 185v1044h149v-1053q0 -170 -102 -273t-266 -103q-107 0 -191 47t-131 133t-47 196z" />
    <glyph glyph-name="Uacute" unicode="&#xda;" horiz-adv-x="983" 
d="M547 1798h151l-223 -264h-115zM123 360v1053h149v-1044q0 -121 58 -186t162 -65q102 0 160 66t59 185v1044h149v-1053q0 -170 -102 -273t-266 -103q-107 0 -191 47t-131 133t-47 196z" />
    <glyph glyph-name="Ucircumflex" unicode="&#xdb;" horiz-adv-x="983" 
d="M424 1810h131l205 -292h-137l-129 184l-132 -184h-137zM123 360v1053h149v-1044q0 -121 58 -186t162 -65q102 0 160 66t59 185v1044h149v-1053q0 -170 -102 -273t-266 -103q-107 0 -191 47t-131 133t-47 196z" />
    <glyph glyph-name="Udieresis" unicode="&#xdc;" horiz-adv-x="983" 
d="M569 1716h154v-176h-154v176zM258 1716h154v-176h-154v176zM123 360v1053h149v-1044q0 -121 58 -186t162 -65q102 0 160 66t59 185v1044h149v-1053q0 -170 -102 -273t-266 -103q-107 0 -191 47t-131 133t-47 196z" />
    <glyph glyph-name="Yacute" unicode="&#xdd;" horiz-adv-x="802" 
d="M465 1798h151l-223 -264h-114zM475 0h-147v588l-310 825h164l219 -647l220 647h163l-309 -825v-588z" />
    <glyph glyph-name="Thorn" unicode="&#xde;" horiz-adv-x="901" 
d="M696 744q0 144 -54 211t-169 67h-203v-551h203q115 0 169 65q54 64 54 208zM846 743q0 -403 -365 -403h-211v-340h-147v1413h147v-258h211q189 0 277 -103t88 -309z" />
    <glyph glyph-name="germandbls" unicode="&#xdf;" horiz-adv-x="845" 
d="M592 1106q0 197 -162 199q-168 0 -168 -189v-1116h-141v1069q0 363 297 363q151 0 233 -84t82 -216q-1 -132 -27 -190q-26 -57 -96 -96q59 -31 87 -76t37 -117t9 -226q0 -153 -16 -247q-15 -94 -71 -141t-171 -47h-55v127h39q63 0 91 31q28 32 35 96t7 197t-7 195t-36 97
t-92 35h-43v125h43q73 0 99 51t26 160z" />
    <glyph glyph-name="agrave" unicode="&#xe0;" horiz-adv-x="821" 
d="M408 1180l-224 264h152l186 -264h-114zM561 303v197h-149q-190 0 -190 -198t163 -198q84 1 130 53t46 146zM700 0h-133v98q-72 -114 -209 -114q-136 0 -206 83t-70 229t81 227t234 81h164v170q0 178 -164 178q-77 0 -117 -41t-40 -114v-17h-131v19q1 129 79 203t218 73
q140 0 217 -81q78 -81 77 -226v-768z" />
    <glyph glyph-name="aacute" unicode="&#xe1;" horiz-adv-x="821" 
d="M467 1444h151l-223 -264h-114zM561 303v197h-149q-190 0 -190 -198t163 -198q84 1 130 53t46 146zM700 0h-133v98q-72 -114 -209 -114q-136 0 -206 83t-70 229t81 227t234 81h164v170q0 178 -164 178q-77 0 -117 -41t-40 -114v-17h-131v19q1 129 79 203t218 73
q140 0 217 -81q78 -81 77 -226v-768z" />
    <glyph glyph-name="acircumflex" unicode="&#xe2;" horiz-adv-x="821" 
d="M344 1456h131l205 -293h-137l-129 185l-131 -185h-138zM561 303v197h-149q-190 0 -190 -198t163 -198q84 1 130 53t46 146zM700 0h-133v98q-72 -114 -209 -114q-136 0 -206 83t-70 229t81 227t234 81h164v170q0 178 -164 178q-77 0 -117 -41t-40 -114v-17h-131v19
q1 129 79 203t218 73q140 0 217 -81q78 -81 77 -226v-768z" />
    <glyph glyph-name="atilde" unicode="&#xe3;" horiz-adv-x="821" 
d="M254 1367q26 15 68 15t84 -27t64 -37t50 -9q28 0 50 15t61 60v-143q-33 -39 -60 -54t-63 -15t-62 11q-27 12 -98 52q-16 8 -43 8q-52 0 -115 -78v148q37 39 64 54zM561 303v197h-149q-190 0 -190 -198t163 -198q84 1 130 53t46 146zM700 0h-133v98q-72 -114 -209 -114
q-136 0 -206 83t-70 229t81 227t234 81h164v170q0 178 -164 178q-77 0 -117 -41t-40 -114v-17h-131v19q1 129 79 203t218 73q140 0 217 -81q78 -81 77 -226v-768z" />
    <glyph glyph-name="adieresis" unicode="&#xe4;" horiz-adv-x="821" 
d="M489 1362h154v-176h-154v176zM178 1362h154v-176h-154v176zM561 303v197h-149q-190 0 -190 -198t163 -198q84 1 130 53t46 146zM700 0h-133v98q-72 -114 -209 -114q-136 0 -206 83t-70 229t81 227t234 81h164v170q0 178 -164 178q-77 0 -117 -41t-40 -114v-17h-131v19
q1 129 79 203t218 73q140 0 217 -81q78 -81 77 -226v-768z" />
    <glyph glyph-name="aring" unicode="&#xe5;" horiz-adv-x="821" 
d="M510 1321q0 45 -28 75t-72 30t-71 -30q-28 -30 -28 -75t28 -74q27 -29 71 -29t72 29t28 74zM411 1503q79 0 131 -52t52 -130t-52 -130t-131 -52t-130 52t-52 130t51 130t131 52zM561 303v197h-149q-190 0 -190 -198t163 -198q84 1 130 53t46 146zM700 0h-133v98
q-72 -114 -209 -114q-136 0 -206 83t-70 229t81 227t234 81h164v170q0 178 -164 178q-77 0 -117 -41t-40 -114v-17h-131v19q1 129 79 203t218 73q140 0 217 -81q78 -81 77 -226v-768z" />
    <glyph glyph-name="ae" unicode="&#xe6;" horiz-adv-x="1296" 
d="M561 492h-149q-190 0 -190 -194t163 -194q84 0 130 54t46 147v187zM700 698v-102h355v106q0 132 -45 190q-46 58 -132 58t-132 -57t-46 -195zM1192 317q0 -333 -322 -333q-160 0 -245 118q-86 -120 -252 -118q-139 0 -215 82t-76 226t81 224t234 80h164v178
q0 178 -164 178q-77 0 -117 -41t-40 -114v-17h-131v19q1 129 79 203t226 73q148 0 225 -100q81 100 233 100t237 -94t85 -279v-213h-494v-127q0 -256 185 -258q170 0 170 211v9h137v-7z" />
    <glyph glyph-name="ccedilla" unicode="&#xe7;" horiz-adv-x="837" 
d="M596 709v28q0 213 -172 213q-90 0 -136 -57t-46 -195v-338q0 -137 46 -194t134 -57q174 0 174 213v28h139v-26q0 -267 -203 -326l-108 -309h-156l125 295q-291 20 -291 360v371q0 186 84 273t235 87t233 -84t81 -254v-28h-139z" />
    <glyph glyph-name="egrave" unicode="&#xe8;" horiz-adv-x="835" 
d="M406 1180l-224 264h152l186 -264h-114zM242 698v-104h354v108q0 248 -178 248q-86 0 -131 -58t-45 -194zM242 487v-125q0 -139 48 -198t136 -60q168 0 168 211v9h137v-7q0 -165 -81 -249t-228 -84q-319 0 -320 376v342q0 184 83 278t231 95q148 0 232 -94q85 -94 85 -279
v-215h-491z" />
    <glyph glyph-name="eacute" unicode="&#xe9;" horiz-adv-x="835" 
d="M465 1444h151l-223 -264h-114zM242 698v-104h354v108q0 248 -178 248q-86 0 -131 -58t-45 -194zM242 487v-125q0 -139 48 -198t136 -60q168 0 168 211v9h137v-7q0 -165 -81 -249t-228 -84q-319 0 -320 376v342q0 184 83 278t231 95q148 0 232 -94q85 -94 85 -279v-215
h-491z" />
    <glyph glyph-name="ecircumflex" unicode="&#xea;" horiz-adv-x="835" 
d="M342 1456h131l205 -293h-137l-129 185l-131 -185h-138zM242 698v-104h354v108q0 248 -178 248q-86 0 -131 -58t-45 -194zM242 487v-125q0 -139 48 -198t136 -60q168 0 168 211v9h137v-7q0 -165 -81 -249t-228 -84q-319 0 -320 376v342q0 184 83 278t231 95q148 0 232 -94
q85 -94 85 -279v-215h-491z" />
    <glyph glyph-name="edieresis" unicode="&#xeb;" horiz-adv-x="835" 
d="M487 1362h154v-176h-154v176zM176 1362h154v-176h-154v176zM242 698v-104h354v108q0 248 -178 248q-86 0 -131 -58t-45 -194zM242 487v-125q0 -139 48 -198t136 -60q168 0 168 211v9h137v-7q0 -165 -81 -249t-228 -84q-319 0 -320 376v342q0 184 83 278t231 95
q148 0 232 -94q85 -94 85 -279v-215h-491z" />
    <glyph glyph-name="igrave" unicode="&#xec;" horiz-adv-x="405" 
d="M199 1180l-224 264h152l186 -264h-114zM133 1059h139v-1059h-139v1059z" />
    <glyph glyph-name="iacute" unicode="&#xed;" horiz-adv-x="405" 
d="M258 1444h152l-224 -264h-114zM133 1059h139v-1059h-139v1059z" />
    <glyph glyph-name="icircumflex" unicode="&#xee;" horiz-adv-x="405" 
d="M135 1456h131l205 -293h-137l-129 185l-131 -185h-137zM133 1059h139v-1059h-139v1059z" />
    <glyph glyph-name="idieresis" unicode="&#xef;" horiz-adv-x="405" 
d="M281 1362h153v-176h-153v176zM-31 1362h154v-176h-154v176zM133 1059h139v-1059h-139v1059z" />
    <glyph glyph-name="eth" unicode="&#xf0;" horiz-adv-x="831" 
d="M590 612q0 229 -174 230q-174 0 -174 -228v-274q0 -231 174 -231t174 231v272zM729 573v-204q0 -387 -313 -387t-314 383v231q0 371 279 371q72 0 117 -25l-115 197l-172 -56l-33 105l150 47l-107 184h156l82 -141l166 53l30 -104l-141 -45l78 -135q77 -134 107 -234
t30 -240z" />
    <glyph glyph-name="ntilde" unicode="&#xf1;" horiz-adv-x="851" 
d="M268 1367q26 15 68 15t84 -27t64 -37t50 -9q28 0 51 15q22 15 60 60v-143q-33 -39 -59 -54t-63 -15q-35 0 -59 10t-54 27t-48 25q-16 8 -42 9q-53 0 -115 -78v148q37 39 63 54zM121 1059h135v-96q31 51 86 81t123 31q127 0 197 -82t69 -227v-766h-139v760q0 92 -45 141
t-120 49t-121 -50t-46 -140v-760h-139v1059z" />
    <glyph glyph-name="ograve" unicode="&#xf2;" horiz-adv-x="837" 
d="M416 1180l-223 264h151l186 -264h-114zM596 360v338q0 136 -45 194t-131 58t-132 -57t-46 -195v-338q0 -137 46 -194t132 -57t131 58t45 193zM102 344v371q0 186 84 273t234 87t232 -88q83 -88 83 -272v-371q0 -184 -83 -272q-82 -88 -232 -88t-234 87t-84 273z" />
    <glyph glyph-name="oacute" unicode="&#xf3;" horiz-adv-x="837" 
d="M475 1444h152l-224 -264h-114zM596 360v338q0 136 -45 194t-131 58t-132 -57t-46 -195v-338q0 -137 46 -194t132 -57t131 58t45 193zM102 344v371q0 186 84 273t234 87t232 -88q83 -88 83 -272v-371q0 -184 -83 -272q-82 -88 -232 -88t-234 87t-84 273z" />
    <glyph glyph-name="ocircumflex" unicode="&#xf4;" horiz-adv-x="837" 
d="M352 1456h131l205 -293h-137l-129 185l-131 -185h-137zM596 360v338q0 136 -45 194t-131 58t-132 -57t-46 -195v-338q0 -137 46 -194t132 -57t131 58t45 193zM102 344v371q0 186 84 273t234 87t232 -88q83 -88 83 -272v-371q0 -184 -83 -272q-82 -88 -232 -88t-234 87
t-84 273z" />
    <glyph glyph-name="otilde" unicode="&#xf5;" horiz-adv-x="837" 
d="M262 1367q26 15 68 15q40 0 84 -27q42 -27 64 -37t50 -9q28 0 51 15q22 15 60 60v-143q-33 -39 -59 -54t-63 -15q-36 0 -63 11q-27 12 -98 52q-16 8 -43 8q-53 0 -114 -78v148q37 39 63 54zM596 360v338q0 136 -45 194t-131 58t-132 -57t-46 -195v-338q0 -137 46 -194
t132 -57t131 58t45 193zM102 344v371q0 186 84 273t234 87t232 -88q83 -88 83 -272v-371q0 -184 -83 -272q-82 -88 -232 -88t-234 87t-84 273z" />
    <glyph glyph-name="odieresis" unicode="&#xf6;" horiz-adv-x="837" 
d="M498 1362h153v-176h-153v176zM186 1362h154v-176h-154v176zM596 360v338q0 136 -45 194t-131 58t-132 -57t-46 -195v-338q0 -137 46 -194t132 -57t131 58t45 193zM102 344v371q0 186 84 273t234 87t232 -88q83 -88 83 -272v-371q0 -184 -83 -272q-82 -88 -232 -88
t-234 87t-84 273z" />
    <glyph glyph-name="divide" unicode="&#xf7;" horiz-adv-x="860" 
d="M432 196q-41 0 -70 29t-28 70q0 41 28 69q29 28 70 28t69 -28q27 -28 27 -69t-28 -70t-68 -29zM82 633h698v-135h-698v135zM432 940q41 0 69 -28q27 -28 27 -68t-28 -70q-28 -29 -68 -29q-41 0 -70 29t-28 70q0 40 28 68t70 28z" />
    <glyph glyph-name="oslash" unicode="&#xf8;" horiz-adv-x="837" 
d="M421 109q85 0 130 58t45 193v338q0 62 -8 101l-299 -635q47 -55 132 -55zM420 950q-86 0 -132 -57t-46 -195v-338q0 -57 10 -104l297 637q-43 57 -129 57zM735 344q0 -184 -83 -272t-215 -88t-208 51l-45 -96h-82l70 149q-70 88 -70 256v371q0 186 84 273t218 87t206 -51
l43 90h82l-67 -145q68 -90 67 -254v-371z" />
    <glyph glyph-name="ugrave" unicode="&#xf9;" horiz-adv-x="851" 
d="M422 1180l-223 264h151l187 -264h-115zM121 326v733h139v-639q0 -168 34 -240t134 -71q68 1 102 31t49 96q13 66 13 184v639h139v-733q0 -172 -75 -257t-230 -85t-230 85t-75 257z" />
    <glyph glyph-name="uacute" unicode="&#xfa;" horiz-adv-x="851" 
d="M481 1444h152l-223 -264h-115zM121 326v733h139v-639q0 -168 34 -240t134 -71q68 1 102 31t49 96q13 66 13 184v639h139v-733q0 -172 -75 -257t-230 -85t-230 85t-75 257z" />
    <glyph glyph-name="ucircumflex" unicode="&#xfb;" horiz-adv-x="851" 
d="M358 1456h131l205 -293h-137l-129 185l-131 -185h-137zM121 326v733h139v-639q0 -168 34 -240t134 -71q68 1 102 31t49 96q13 66 13 184v639h139v-733q0 -172 -75 -257t-230 -85t-230 85t-75 257z" />
    <glyph glyph-name="udieresis" unicode="&#xfc;" horiz-adv-x="851" 
d="M504 1362h153v-176h-153v176zM193 1362h153v-176h-153v176zM121 326v733h139v-639q0 -168 34 -240t134 -71q68 1 102 31t49 96q13 66 13 184v639h139v-733q0 -172 -75 -257t-230 -85t-230 85t-75 257z" />
    <glyph glyph-name="yacute" unicode="&#xfd;" horiz-adv-x="759" 
d="M440 1444h152l-223 -264h-115zM113 -315h-21v125h35q80 0 123 30t59 103l8 32l-286 1084h151l201 -809l195 809h151l-309 -1159q-31 -119 -105 -167t-202 -48z" />
    <glyph glyph-name="thorn" unicode="&#xfe;" horiz-adv-x="843" 
d="M260 358q0 -249 176 -249q82 0 124 58t42 193v338q0 252 -166 252q-176 0 -176 -254v-338zM121 1413h139v-457q70 119 199 119t206 -89t76 -271v-371q-1 -182 -77 -271t-205 -89t-199 112v-407h-139v1724z" />
    <glyph glyph-name="ydieresis" unicode="&#xff;" horiz-adv-x="759" 
d="M463 1362h153v-176h-153v176zM152 1362h153v-176h-153v176zM113 -315h-21v125h35q80 0 123 30t59 103l8 32l-286 1084h151l201 -809l195 809h151l-309 -1159q-31 -119 -105 -167t-202 -48z" />
    <glyph glyph-name="dotlessi" unicode="&#x131;" horiz-adv-x="405" 
d="M133 1059h139v-1059h-139v1059z" />
    <glyph glyph-name="OE" unicode="&#x152;" horiz-adv-x="1398" 
d="M723 989q0 311 -231 309q-119 0 -178 -75q-58 -76 -58 -234v-579q0 -291 236 -291q111 1 171 73t60 218v579zM870 1280v-358q2 -27 2 -84v-52h385v-135h-385v-59q0 -57 -2 -86v-373h455v-133h-588v86q-94 -102 -263 -102t-268 106t-100 322v592q0 217 100 323
q100 107 267 107q168 0 264 -99v78h588v-133h-455z" />
    <glyph glyph-name="oe" unicode="&#x153;" horiz-adv-x="1331" 
d="M1090 702q0 248 -177 248q-86 0 -132 -57t-46 -195v-102h355v106zM596 360v338q0 136 -45 194t-131 58t-132 -57t-46 -195v-338q0 -137 46 -194t132 -57t131 58t45 193zM102 715q0 360 329 360q161 0 237 -108q82 109 236 109t240 -95q86 -94 85 -279v-213h-494v-127
q-1 -256 181 -258q174 -1 174 211v9h137v-7q0 -165 -82 -249t-240 -84t-237 106q-80 -106 -239 -106q-327 0 -327 360v371z" />
    <glyph glyph-name="Scaron" unicode="&#x160;" horiz-adv-x="872" 
d="M160 1827h137l131 -185l129 185h137l-205 -293h-131zM217 1065q0 -99 48 -157t165 -103l84 -33q141 -55 213 -145t72 -264q-1 -173 -97 -275t-277 -102q-362 0 -372 401h146q6 -143 64 -205t168 -63q218 0 218 254q0 113 -48 170t-173 108l-82 33q-139 55 -209 141
q-69 86 -69 245t97 261q97 103 263 103t260 -96t103 -285h-142q-14 248 -219 247q-213 0 -213 -235z" />
    <glyph glyph-name="scaron" unicode="&#x161;" horiz-adv-x="782" 
d="M125 1473h137l131 -185l129 185h137l-204 -293h-131zM82 285v12h129v-12q0 -86 49 -132q49 -47 132 -47t131 42t48 119t-32 116q-33 39 -111 72l-133 55q-203 84 -203 276q0 131 83 210t222 79t220 -80t81 -215v-26h-129v12q0 90 -45 139t-125 49t-124 -42t-44 -106
t29 -106t100 -71l134 -56q108 -45 162 -108t54 -192t-84 -209q-86 -80 -232 -80t-229 81t-83 220z" />
    <glyph glyph-name="Ydieresis" unicode="&#x178;" horiz-adv-x="802" 
d="M487 1716h154v-176h-154v176zM176 1716h154v-176h-154v176zM475 0h-147v588l-310 825h164l219 -647l220 647h163l-309 -825v-588z" />
    <glyph glyph-name="Zcaron" unicode="&#x17d;" horiz-adv-x="788" 
d="M133 1827h137l131 -185l129 185h138l-205 -293h-131zM733 133v-133h-672v133l510 1147h-487v133h635v-133l-512 -1147h526z" />
    <glyph glyph-name="zcaron" unicode="&#x17e;" horiz-adv-x="770" 
d="M131 1473h137l131 -185l129 185h138l-205 -293h-131zM668 127v-127h-566v127l416 805h-416v127h566v-127l-416 -805h416z" />
    <glyph glyph-name="florin" unicode="&#x192;" horiz-adv-x="784" 
d="M20 -178h41q57 0 90 15q32 15 50 55t30 118l99 703h-150v131h168l35 254q25 166 97 240t222 75h62v-133h-62q-57 0 -89 -15t-50 -55t-31 -114l-34 -252h176v-131h-195l-100 -707q-23 -168 -97 -243t-223 -74h-39v133z" />
    <glyph glyph-name="circumflex" unicode="&#x2c6;" horiz-adv-x="1026" 
d="M444 1456h131l205 -293h-137l-129 185l-131 -185h-137z" />
    <glyph glyph-name="caron" unicode="&#x2c7;" horiz-adv-x="1064" 
d="M266 1473h137l132 -185l129 185h137l-205 -293h-131z" />
    <glyph glyph-name="dotaccent" unicode="&#x2d9;" horiz-adv-x="1026" 
d="M442 1403h142v-184h-142v184z" />
    <glyph glyph-name="ring" unicode="&#x2da;" horiz-adv-x="1048" 
d="M623 1321q0 45 -28 75t-72 30q-43 0 -71 -30t-28 -75t28 -74t72 -29t71 29q28 29 28 74zM342 1321q0 78 51 130t130 52t131 -52t52 -130t-52 -130t-131 -52t-130 52t-51 130z" />
    <glyph glyph-name="tilde" unicode="&#x2dc;" horiz-adv-x="1026" 
d="M356 1367q26 15 69 15q42 0 84 -27q41 -27 63 -37t51 -9q29 0 51 15t59 60v-143q-33 -39 -59 -54t-63 -15q-36 0 -61 10q-25 11 -99 53q-16 8 -43 8q-54 0 -115 -78v148q37 39 63 54z" />
    <glyph glyph-name="gravecomb" unicode="&#x300;" horiz-adv-x="0" 
d="M-4 1180l-223 264h151l187 -264h-115z" />
    <glyph glyph-name="acutecomb" unicode="&#x301;" horiz-adv-x="0" 
d="M55 1444h152l-223 -264h-115z" />
    <glyph glyph-name="uni0302" unicode="&#x302;" horiz-adv-x="0" 
d="M-68 1456h131l205 -293h-137l-129 185l-131 -185h-137z" />
    <glyph glyph-name="tildecomb" unicode="&#x303;" horiz-adv-x="0" 
d="M-158 1367q26 15 68 15q41 0 84 -27q42 -27 64 -37t50 -9q28 0 51 15q22 15 60 60v-143q-33 -39 -59 -54t-63 -15q-36 0 -61 10q-25 11 -99 53q-16 8 -43 8q-54 0 -115 -78v148q37 39 63 54z" />
    <glyph glyph-name="uni0308" unicode="&#x308;" horiz-adv-x="0" 
d="M78 1362h153v-176h-153v176zM-233 1362h153v-176h-153v176z" />
    <glyph glyph-name="uni030A" unicode="&#x30a;" horiz-adv-x="0" 
d="M-1 1218q44 0 72 29t27 74q0 45 -27 75q-28 30 -72 30t-72 -30q-27 -30 -27 -75t28 -74t71 -29zM-182 1321q0 78 51 130t130 52t131 -52t52 -130t-52 -130t-131 -52t-130 52t-51 130z" />
    <glyph glyph-name="endash" unicode="&#x2013;" horiz-adv-x="854" 
d="M0 778h854v-133h-854v133z" />
    <glyph glyph-name="emdash" unicode="&#x2014;" horiz-adv-x="1705" 
d="M0 778h1706v-133h-1706v133z" />
    <glyph glyph-name="quoteleft" unicode="&#x2018;" horiz-adv-x="307" 
d="M223 1001h-139v359l139 121v-480z" />
    <glyph glyph-name="quoteright" unicode="&#x2019;" horiz-adv-x="307" 
d="M84 1413h139v-358l-139 -121v479z" />
    <glyph glyph-name="quotesinglbase" unicode="&#x201a;" horiz-adv-x="307" 
d="M84 190h139v-358l-139 -121v479z" />
    <glyph glyph-name="quotedblleft" unicode="&#x201c;" horiz-adv-x="573" 
d="M489 1001h-139v359l139 121v-480zM223 1001h-139v359l139 121v-480z" />
    <glyph glyph-name="quotedblright" unicode="&#x201d;" horiz-adv-x="573" 
d="M350 1413h139v-358l-139 -121v479zM84 1413h139v-358l-139 -121v479z" />
    <glyph glyph-name="quotedblbase" unicode="&#x201e;" horiz-adv-x="573" 
d="M84 190h139v-358l-139 -121v479zM350 190h139v-358l-139 -121v479z" />
    <glyph glyph-name="dagger" unicode="&#x2020;" horiz-adv-x="966" 
d="M846 776h-287v-1087h-149v1087h-289v135h289v502h149v-502h287v-135z" />
    <glyph glyph-name="daggerdbl" unicode="&#x2021;" horiz-adv-x="966" 
d="M559 786v-469h287v-135h-287v-493h-149v493h-289v135h289v469h-289v136h289v491h149v-491h287v-136h-287z" />
    <glyph glyph-name="bullet" unicode="&#x2022;" horiz-adv-x="864" 
d="M182 632q0 108 72 178t180 71q108 0 178 -71t70 -178t-71 -179t-178 -72t-179 72q-72 71 -72 179z" />
    <glyph glyph-name="ellipsis" unicode="&#x2026;" horiz-adv-x="1175" 
d="M508 182h160v-182h-160v182zM932 182h160v-182h-160v182zM84 182h160v-182h-160v182z" />
    <glyph glyph-name="perthousand" unicode="&#x2030;" horiz-adv-x="1984" 
d="M1778 614q0 70 -16 100t-58 30q-41 0 -57 -30t-17 -100v-370q0 -72 16 -103t58 -31q41 0 57 31t17 103v370zM1208 244v370q0 70 -16 100t-57 30t-58 -30q-16 -30 -16 -100v-370q0 -72 16 -103q15 -31 57 -31t58 31t16 103zM1489 614q0 256 215 256q111 0 163 -63t52 -193
v-370q0 -131 -52 -196t-163 -65t-163 65t-52 196v370zM1350 244q0 -262 -215 -260q-111 -1 -163 64t-52 196v370q0 256 215 256q111 0 163 -63t52 -193v-370zM356 801v370q0 70 -16 100q-16 29 -57 29t-58 -29q-16 -30 -16 -100v-370q0 -72 16 -103q15 -31 57 -31t58 31
t16 103zM899 1413h129l-508 -1413h-129zM498 801q0 -262 -215 -260q-111 -1 -163 64t-52 196v370q0 256 215 256q111 0 163 -63t52 -193v-370z" />
    <glyph glyph-name="guilsinglleft" unicode="&#x2039;" horiz-adv-x="528" 
d="M41 541l367 374v-155l-213 -219l213 -219v-156z" />
    <glyph glyph-name="guilsinglright" unicode="&#x203a;" horiz-adv-x="548" 
d="M121 322l213 219l-213 219v155l366 -374l-366 -375v156z" />
    <glyph glyph-name="Euro" unicode="&#x20ac;" horiz-adv-x="931" 
d="M825 319q-7 -335 -327 -335q-308 0 -308 383v151h-129v127h129v135h-129v129h129v158q0 168 79 267q79 100 236 100t235 -87t83 -247h-139q-6 100 -45 150t-125 50q-174 0 -174 -223v-168h356l-24 -129h-332v-135h305l-24 -127h-281v-158q0 -119 38 -181t129 -62t130 50
t47 152h141z" />
    <glyph glyph-name="trademark" unicode="&#x2122;" horiz-adv-x="1370" 
d="M651 1413h133l166 -500h4l162 500h131v-807h-125v492h-4l-125 -367h-86l-125 367h-4v-492h-127v807zM236 1290h-175v123h482v-123h-174v-684h-133v684z" />
    <glyph glyph-name="NULL" horiz-adv-x="1228" 
 />
    <glyph glyph-name="t_t" horiz-adv-x="1128" 
d="M330 285q0 -162 157 -162h29v-123h-35q-291 0 -291 279v651h-135v108h135v242l140 63v-305h385v242l139 63v-305h203v-108h-203v-645q0 -162 156 -162h30v-123h-34q-291 0 -291 279v651h-385v-645z" />
    <glyph glyph-name="zero.dnom" horiz-adv-x="563" 
d="M356 248v370q0 70 -16 100t-57 30t-57 -30t-17 -100v-370q0 -72 16 -103q15 -31 57 -31t58 31t16 103zM498 248q0 -262 -215 -260q-111 -1 -163 64t-52 196v370q0 256 215 256q111 0 163 -63t52 -193v-370z" />
    <glyph glyph-name="one.dnom" horiz-adv-x="407" 
d="M315 856v-856h-145v696l-127 -102v162l127 100h145z" />
    <glyph glyph-name="two.dnom" horiz-adv-x="555" 
d="M346 662q0 85 -70 83q-70 0 -69 -94v-45h-137v62q0 92 57 147t153 55t151 -56q56 -56 56 -148v-50q0 -91 -67 -192l-191 -297h258v-127h-421v123l235 364q45 70 45 134v41z" />
    <glyph glyph-name="three.dnom" horiz-adv-x="548" 
d="M479 612q0 -121 -90 -163q53 -23 73 -65t21 -112v-71q0 -97 -58 -155q-59 -58 -157 -58t-152 54t-55 148v52h136v-47q0 -84 71 -82q74 0 74 94v74q0 51 -19 75t-63 23h-37v125h37q78 0 78 90v61q0 90 -70 90t-69 -81v-48h-138v54q1 92 57 146t153 54t153 -55t55 -153v-50
z" />
    <glyph glyph-name="four.dnom" horiz-adv-x="579" 
d="M528 152h-63v-152h-143v152h-275v127l189 577h143l-189 -577h132v196h143v-196h63v-127z" />
    <glyph glyph-name="zero.numr" horiz-adv-x="563" 
d="M356 807v371q0 70 -16 100t-57 29q-41 0 -57 -30t-17 -99v-371q0 -73 16 -103q15 -30 57 -30t58 31t16 102zM498 807q0 -262 -215 -260q-111 -1 -163 64t-52 196v371q0 254 215 256q111 0 163 -64t52 -192v-371z" />
    <glyph glyph-name="one.numr" horiz-adv-x="407" 
d="M315 1415v-856h-145v696l-127 -102v162l127 100h145z" />
    <glyph glyph-name="two.numr" horiz-adv-x="555" 
d="M346 1221q0 84 -70 84t-69 -95v-45h-137v62q0 92 57 147q57 56 153 56t151 -56q56 -56 56 -149v-49q0 -92 -67 -193l-191 -297h258v-127h-421v123l235 365q45 70 45 133v41z" />
    <glyph glyph-name="three.numr" horiz-adv-x="548" 
d="M479 1171q0 -121 -90 -163q53 -23 73 -65t21 -112v-71q0 -98 -58 -156q-59 -58 -157 -57q-98 0 -152 54t-55 149v51h136v-47q0 -84 71 -82q74 0 74 94v74q0 50 -19 74t-63 24h-37v125h37q78 0 78 90v61q0 90 -70 91q-69 0 -69 -82v-47h-138v53q1 92 57 146q56 55 153 55
t153 -56t55 -153v-50z" />
    <glyph glyph-name="four.numr" horiz-adv-x="579" 
d="M528 711h-63v-152h-143v152h-275v127l189 577h143l-189 -577h132v196h143v-196h63v-127z" />
    <glyph glyph-name="zero.sups" horiz-adv-x="563" 
d="M356 1128v371q0 69 -16 99t-57 30t-57 -30t-17 -99v-371q0 -72 16 -102q15 -30 57 -31q42 0 58 31t16 102zM498 1128q0 -260 -215 -260q-111 0 -163 65t-52 195v371q0 256 215 256q111 0 163 -63t52 -193v-371z" />
    <glyph glyph-name="one.sups" horiz-adv-x="407" 
d="M315 1737v-856h-145v696l-127 -102v161l127 101h145z" />
    <glyph glyph-name="two.sups" horiz-adv-x="555" 
d="M346 1542q0 86 -70 84q-70 0 -69 -94v-45h-137v61q0 92 57 148t153 55q96 0 151 -56q56 -56 56 -149v-49q0 -91 -67 -192l-191 -297h258v-127h-421v123l235 364q45 70 45 133v41z" />
    <glyph glyph-name="three.sups" horiz-adv-x="548" 
d="M479 1493q0 -120 -90 -164q53 -23 74 -64q20 -42 20 -112v-72q0 -98 -58 -155q-59 -57 -157 -57t-152 54t-55 148v51h136v-47q1 -82 73 -82t72 94v74q0 51 -19 75t-63 24h-37v124h37q78 0 78 91v61q0 90 -70 90t-69 -82v-47h-138v53q1 92 57 146t153 55q97 0 153 -55
t55 -154v-49z" />
    <glyph glyph-name="four.sups" horiz-adv-x="579" 
d="M528 1032h-63v-151h-143v151h-275v127l189 578h143l-189 -578h132v197h143v-197h63v-127z" />
    </font>
</defs>
</svg>
