<?xml version="1.0" encoding="UTF-8"?><svg id="Layer_2" xmlns="http://www.w3.org/2000/svg" viewBox="0 0 150.33 56.05"><defs><style>.cls-1{fill:#BBBBBB;}</style></defs><g id="Layer_1-2"><g><path class="cls-1" d="M12.53,15.47c.1,.41,.15,.93,.15,1.55s-.05,1.11-.15,1.55h-1.55c.1,.41,.15,.93,.15,1.55s-.05,1.11-.15,1.55H3.25c-.1-.44-.15-.95-.15-1.55s.05-1.13,.15-1.55H1.7c-.1-.44-.15-.95-.15-1.55s.05-1.13,.15-1.55H.15c-.1-.44-.15-.95-.15-1.55s.05-1.13,.15-1.55c-.1-.44-.15-.95-.15-1.55s.05-1.13,.15-1.55c-.1-.44-.15-.95-.15-1.55s.05-1.13,.15-1.55H1.7c-.1-.44-.15-.95-.15-1.55s.05-1.13,.15-1.55h1.55c-.1-.44-.15-.95-.15-1.55s.05-1.13,.15-1.55h7.73c.1,.41,.15,.93,.15,1.55s-.05,1.11-.15,1.55h1.55c.1,.41,.15,.93,.15,1.55s-.05,1.11-.15,1.55h-3.09c-.1-.44-.15-.95-.15-1.55s.05-1.13,.15-1.55H4.79c.1,.41,.15,.93,.15,1.55s-.05,1.11-.15,1.55h-1.55c.1,.41,.15,.93,.15,1.55s-.05,1.11-.15,1.55c.1,.41,.15,.93,.15,1.55s-.05,1.11-.15,1.55c.1,.41,.15,.93,.15,1.55s-.05,1.11-.15,1.55h1.55c.1,.41,.15,.93,.15,1.55s-.05,1.11-.15,1.55h4.64c-.1-.44-.15-.95-.15-1.55s.05-1.13,.15-1.55h3.09Z"/><path class="cls-1" d="M28.15,4.64c0,.59-.05,1.11-.15,1.55,.1,.41,.15,.93,.15,1.55s-.05,1.11-.15,1.55c.1,.41,.15,.93,.15,1.55s-.05,1.11-.15,1.55c.1,.41,.15,.93,.15,1.55s-.05,1.11-.15,1.55c.1,.41,.15,.93,.15,1.55s-.05,1.11-.15,1.55c.1,.41,.15,.93,.15,1.55s-.05,1.11-.15,1.55h-3.09c-.1-.44-.15-.95-.15-1.55s.05-1.13,.15-1.55c-.1-.44-.15-.95-.15-1.55s.05-1.13,.15-1.55c-.1-.44-.15-.95-.15-1.55s.05-1.13,.15-1.55h-6.19c.1,.41,.15,.93,.15,1.55s-.05,1.11-.15,1.55c.1,.41,.15,.93,.15,1.55s-.05,1.11-.15,1.55c.1,.41,.15,.93,.15,1.55s-.05,1.11-.15,1.55h-3.09c-.1-.44-.15-.95-.15-1.55s.05-1.13,.15-1.55c-.1-.44-.15-.95-.15-1.55s.05-1.13,.15-1.55c-.1-.44-.15-.95-.15-1.55s.05-1.13,.15-1.55c-.1-.44-.15-.95-.15-1.55s.05-1.13,.15-1.55c-.1-.44-.15-.95-.15-1.55s.05-1.13,.15-1.55c-.1-.44-.15-.95-.15-1.55s.05-1.13,.15-1.55c-.1-.44-.15-.95-.15-1.55s.05-1.13,.15-1.55h3.09c.1,.41,.15,.93,.15,1.55s-.05,1.11-.15,1.55c.1,.41,.15,.93,.15,1.55s-.05,1.11-.15,1.55c.1,.41,.15,.93,.15,1.55s-.05,1.11-.15,1.55h6.19c-.1-.44-.15-.95-.15-1.55s.05-1.13,.15-1.55c-.1-.44-.15-.95-.15-1.55s.05-1.13,.15-1.55c-.1-.44-.15-.95-.15-1.55s.05-1.13,.15-1.55h3.09c.1,.41,.15,.93,.15,1.55s-.05,1.11-.15,1.55c.1,.41,.15,.93,.15,1.55Z"/><path class="cls-1" d="M35.73,12.37c.1,.41,.15,.93,.15,1.55s-.05,1.11-.15,1.55c.1,.41,.15,.93,.15,1.55s-.05,1.11-.15,1.55h6.19c.1,.41,.15,.93,.15,1.55s-.05,1.11-.15,1.55h-9.28c-.1-.44-.15-.95-.15-1.55s.05-1.13,.15-1.55c-.1-.44-.15-.95-.15-1.55s.05-1.13,.15-1.55c-.1-.44-.15-.95-.15-1.55s.05-1.13,.15-1.55c-.1-.44-.15-.95-.15-1.55s.05-1.13,.15-1.55c-.1-.44-.15-.95-.15-1.55s.05-1.13,.15-1.55c-.1-.44-.15-.95-.15-1.55s.05-1.13,.15-1.55c-.1-.44-.15-.95-.15-1.55s.05-1.13,.15-1.55h9.28c.1,.41,.15,.93,.15,1.55s-.05,1.11-.15,1.55h-6.19c.1,.41,.15,.93,.15,1.55s-.05,1.11-.15,1.55c.1,.41,.15,.93,.15,1.55s-.05,1.11-.15,1.55h6.19c.1,.41,.15,.93,.15,1.55s-.05,1.11-.15,1.55h-6.19Z"/><path class="cls-1" d="M58.93,18.56c.1,.41,.15,.93,.15,1.55s-.05,1.11-.15,1.55h-3.09c-.1-.44-.15-.95-.15-1.55s.05-1.13,.15-1.55c-.1-.44-.15-.95-.15-1.55s.05-1.13,.15-1.55h-6.19c.1,.41,.15,.93,.15,1.55s-.05,1.11-.15,1.55c.1,.41,.15,.93,.15,1.55s-.05,1.11-.15,1.55h-3.09c-.1-.44-.15-.95-.15-1.55s.05-1.13,.15-1.55c-.1-.44-.15-.95-.15-1.55s.05-1.13,.15-1.55h1.16c-.1-.44-.15-.95-.15-1.55s.05-1.13,.15-1.55c-.1-.44-.15-.95-.15-1.55s.05-1.13,.15-1.55h.77c-.1-.44-.15-.95-.15-1.55s.05-1.13,.15-1.55h1.16c-.1-.44-.15-.95-.15-1.55s.05-1.13,.15-1.55h.77c-.1-.44-.15-.95-.15-1.55s.05-1.13,.15-1.55h4.64c.1,.41,.15,.93,.15,1.55s-.05,1.11-.15,1.55h.77c.1,.41,.15,.93,.15,1.55s-.05,1.11-.15,1.55h1.16c.1,.41,.15,.93,.15,1.55s-.05,1.11-.15,1.55h.77c.1,.41,.15,.93,.15,1.55s-.05,1.11-.15,1.55c.1,.41,.15,.93,.15,1.55s-.05,1.11-.15,1.55h1.16c.1,.41,.15,.93,.15,1.55s-.05,1.11-.15,1.55Zm-4.41-7.73c0-.62,.05-1.13,.15-1.55h-.77c-.1-.44-.15-.95-.15-1.55s.05-1.13,.15-1.55h-2.32c.1,.41,.15,.93,.15,1.55s-.05,1.11-.15,1.55h-.77c.1,.41,.15,.93,.15,1.55s-.05,1.11-.15,1.55h3.87c-.1-.44-.15-.95-.15-1.55Z"/><path class="cls-1" d="M74.39,3.09h-4.64c.1,.41,.15,.93,.15,1.55s-.05,1.11-.15,1.55c.1,.41,.15,.93,.15,1.55s-.05,1.11-.15,1.55c.1,.41,.15,.93,.15,1.55s-.05,1.11-.15,1.55c.1,.41,.15,.93,.15,1.55s-.05,1.11-.15,1.55c.1,.41,.15,.93,.15,1.55s-.05,1.11-.15,1.55c.1,.41,.15,.93,.15,1.55s-.05,1.11-.15,1.55h-3.09c-.1-.44-.15-.95-.15-1.55s.05-1.13,.15-1.55c-.1-.44-.15-.95-.15-1.55s.05-1.13,.15-1.55c-.1-.44-.15-.95-.15-1.55s.05-1.13,.15-1.55c-.1-.44-.15-.95-.15-1.55s.05-1.13,.15-1.55c-.1-.44-.15-.95-.15-1.55s.05-1.13,.15-1.55c-.1-.44-.15-.95-.15-1.55s.05-1.13,.15-1.55h-4.64c-.1-.44-.15-.95-.15-1.55s.05-1.13,.15-1.55h12.37c.1,.41,.15,.93,.15,1.55s-.05,1.11-.15,1.55Z"/><path class="cls-1" d="M105.48,4.64c0,.59-.05,1.11-.15,1.55,.1,.41,.15,.93,.15,1.55s-.05,1.11-.15,1.55c.1,.41,.15,.93,.15,1.55s-.05,1.11-.15,1.55c.1,.41,.15,.93,.15,1.55s-.05,1.11-.15,1.55c.1,.41,.15,.93,.15,1.55s-.05,1.11-.15,1.55c.1,.41,.15,.93,.15,1.55s-.05,1.11-.15,1.55h-3.09c-.1-.44-.15-.95-.15-1.55s.05-1.13,.15-1.55c-.1-.44-.15-.95-.15-1.55s.05-1.13,.15-1.55c-.1-.44-.15-.95-.15-1.55s.05-1.13,.15-1.55c-.1-.44-.15-.95-.15-1.55s.05-1.13,.15-1.55c-.1-.44-.15-.95-.15-1.55s.05-1.13,.15-1.55h-1.16c.1,.41,.15,.93,.15,1.55s-.05,1.11-.15,1.55c.1,.41,.15,.93,.15,1.55s-.05,1.11-.15,1.55h-.77c.1,.41,.15,.93,.15,1.55s-.05,1.11-.15,1.55c.1,.41,.15,.93,.15,1.55s-.05,1.11-.15,1.55h-2.32c-.1-.44-.15-.95-.15-1.55s.05-1.13,.15-1.55c-.1-.44-.15-.95-.15-1.55s.05-1.13,.15-1.55h-.77c-.1-.44-.15-.95-.15-1.55s.05-1.13,.15-1.55c-.1-.44-.15-.95-.15-1.55s.05-1.13,.15-1.55h-1.16c.1,.41,.15,.93,.15,1.55s-.05,1.11-.15,1.55c.1,.41,.15,.93,.15,1.55s-.05,1.11-.15,1.55c.1,.41,.15,.93,.15,1.55s-.05,1.11-.15,1.55c.1,.41,.15,.93,.15,1.55s-.05,1.11-.15,1.55c.1,.41,.15,.93,.15,1.55s-.05,1.11-.15,1.55h-3.09c-.1-.44-.15-.95-.15-1.55s.05-1.13,.15-1.55c-.1-.44-.15-.95-.15-1.55s.05-1.13,.15-1.55c-.1-.44-.15-.95-.15-1.55s.05-1.13,.15-1.55c-.1-.44-.15-.95-.15-1.55s.05-1.13,.15-1.55c-.1-.44-.15-.95-.15-1.55s.05-1.13,.15-1.55c-.1-.44-.15-.95-.15-1.55s.05-1.13,.15-1.55c-.1-.44-.15-.95-.15-1.55s.05-1.13,.15-1.55h3.87c.1,.41,.15,.93,.15,1.55s-.05,1.11-.15,1.55h1.16c.1,.41,.15,.93,.15,1.55s-.05,1.11-.15,1.55h.58c.1,.41,.15,.93,.15,1.55s-.05,1.11-.15,1.55h1.16c-.1-.44-.15-.95-.15-1.55s.05-1.13,.15-1.55h.58c-.1-.44-.15-.95-.15-1.55s.05-1.13,.15-1.55h1.16c-.1-.44-.15-.95-.15-1.55s.05-1.13,.15-1.55h3.87c.1,.41,.15,.93,.15,1.55s-.05,1.11-.15,1.55c.1,.41,.15,.93,.15,1.55Z"/><path class="cls-1" d="M120.94,10.83c0,.59-.05,1.11-.15,1.55,.1,.41,.15,.93,.15,1.55s-.05,1.11-.15,1.55h-1.16c.1,.41,.15,.93,.15,1.55s-.05,1.11-.15,1.55h-1.93c.1,.41,.15,.93,.15,1.55s-.05,1.11-.15,1.55h-6.19c-.1-.44-.15-.95-.15-1.55s.05-1.13,.15-1.55h-1.93c-.1-.44-.15-.95-.15-1.55s.05-1.13,.15-1.55h-1.16c-.1-.44-.15-.95-.15-1.55s.05-1.13,.15-1.55c-.1-.44-.15-.95-.15-1.55s.05-1.13,.15-1.55c-.1-.44-.15-.95-.15-1.55s.05-1.13,.15-1.55h1.16c-.1-.44-.15-.95-.15-1.55s.05-1.13,.15-1.55h1.93c-.1-.44-.15-.95-.15-1.55s.05-1.13,.15-1.55h6.19c.1,.41,.15,.93,.15,1.55s-.05,1.11-.15,1.55h1.93c.1,.41,.15,.93,.15,1.55s-.05,1.11-.15,1.55h1.16c.1,.41,.15,.93,.15,1.55s-.05,1.11-.15,1.55c.1,.41,.15,.93,.15,1.55Zm-3.4,3.09c0-.62,.05-1.13,.15-1.55-.1-.44-.15-.95-.15-1.55s.05-1.13,.15-1.55c-.1-.44-.15-.95-.15-1.55s.05-1.13,.15-1.55h-1.16c-.1-.44-.15-.95-.15-1.55s.05-1.13,.15-1.55h-3.87c.1,.41,.15,.93,.15,1.55s-.05,1.11-.15,1.55h-1.16c.1,.41,.15,.93,.15,1.55s-.05,1.11-.15,1.55c.1,.41,.15,.93,.15,1.55s-.05,1.11-.15,1.55c.1,.41,.15,.93,.15,1.55s-.05,1.11-.15,1.55h1.16c.1,.41,.15,.93,.15,1.55s-.05,1.11-.15,1.55h3.87c-.1-.44-.15-.95-.15-1.55s.05-1.13,.15-1.55h1.16c-.1-.44-.15-.95-.15-1.55Z"/><path class="cls-1" d="M136.41,10.83c0,.59-.05,1.11-.15,1.55,.1,.41,.15,.93,.15,1.55s-.05,1.11-.15,1.55h-1.55c.1,.41,.15,.93,.15,1.55s-.05,1.11-.15,1.55h-1.55c.1,.41,.15,.93,.15,1.55s-.05,1.11-.15,1.55h-9.28c-.1-.44-.15-.95-.15-1.55s.05-1.13,.15-1.55c-.1-.44-.15-.95-.15-1.55s.05-1.13,.15-1.55c-.1-.44-.15-.95-.15-1.55s.05-1.13,.15-1.55c-.1-.44-.15-.95-.15-1.55s.05-1.13,.15-1.55c-.1-.44-.15-.95-.15-1.55s.05-1.13,.15-1.55c-.1-.44-.15-.95-.15-1.55s.05-1.13,.15-1.55c-.1-.44-.15-.95-.15-1.55s.05-1.13,.15-1.55h9.28c.1,.41,.15,.93,.15,1.55s-.05,1.11-.15,1.55h1.55c.1,.41,.15,.93,.15,1.55s-.05,1.11-.15,1.55h1.55c.1,.41,.15,.93,.15,1.55s-.05,1.11-.15,1.55c.1,.41,.15,.93,.15,1.55Zm-3.4,3.09c0-.62,.05-1.13,.15-1.55-.1-.44-.15-.95-.15-1.55s.05-1.13,.15-1.55c-.1-.44-.15-.95-.15-1.55s.05-1.13,.15-1.55h-1.55c-.1-.44-.15-.95-.15-1.55s.05-1.13,.15-1.55h-4.64c.1,.41,.15,.93,.15,1.55s-.05,1.11-.15,1.55c.1,.41,.15,.93,.15,1.55s-.05,1.11-.15,1.55c.1,.41,.15,.93,.15,1.55s-.05,1.11-.15,1.55c.1,.41,.15,.93,.15,1.55s-.05,1.11-.15,1.55c.1,.41,.15,.93,.15,1.55s-.05,1.11-.15,1.55h4.64c-.1-.44-.15-.95-.15-1.55s.05-1.13,.15-1.55h1.55c-.1-.44-.15-.95-.15-1.55Z"/><path class="cls-1" d="M143.99,12.37c.1,.41,.15,.93,.15,1.55s-.05,1.11-.15,1.55c.1,.41,.15,.93,.15,1.55s-.05,1.11-.15,1.55h6.19c.1,.41,.15,.93,.15,1.55s-.05,1.11-.15,1.55h-9.28c-.1-.44-.15-.95-.15-1.55s.05-1.13,.15-1.55c-.1-.44-.15-.95-.15-1.55s.05-1.13,.15-1.55c-.1-.44-.15-.95-.15-1.55s.05-1.13,.15-1.55c-.1-.44-.15-.95-.15-1.55s.05-1.13,.15-1.55c-.1-.44-.15-.95-.15-1.55s.05-1.13,.15-1.55c-.1-.44-.15-.95-.15-1.55s.05-1.13,.15-1.55c-.1-.44-.15-.95-.15-1.55s.05-1.13,.15-1.55h9.28c.1,.41,.15,.93,.15,1.55s-.05,1.11-.15,1.55h-6.19c.1,.41,.15,.93,.15,1.55s-.05,1.11-.15,1.55c.1,.41,.15,.93,.15,1.55s-.05,1.11-.15,1.55h6.19c.1,.41,.15,.93,.15,1.55s-.05,1.11-.15,1.55h-6.19Z"/><path class="cls-1" d="M20.26,52.96c.1,.41,.15,.93,.15,1.55s-.05,1.11-.15,1.55h-3.09c-.1-.44-.15-.95-.15-1.55s.05-1.13,.15-1.55c-.1-.44-.15-.95-.15-1.55s.05-1.13,.15-1.55h-6.19c.1,.41,.15,.93,.15,1.55s-.05,1.11-.15,1.55c.1,.41,.15,.93,.15,1.55s-.05,1.11-.15,1.55h-3.09c-.1-.44-.15-.95-.15-1.55s.05-1.13,.15-1.55c-.1-.44-.15-.95-.15-1.55s.05-1.13,.15-1.55h1.16c-.1-.44-.15-.95-.15-1.55s.05-1.13,.15-1.55c-.1-.44-.15-.95-.15-1.55s.05-1.13,.15-1.55h.77c-.1-.44-.15-.95-.15-1.55s.05-1.13,.15-1.55h1.16c-.1-.44-.15-.95-.15-1.55s.05-1.13,.15-1.55h.77c-.1-.44-.15-.95-.15-1.55s.05-1.13,.15-1.55h4.64c.1,.41,.15,.93,.15,1.55s-.05,1.11-.15,1.55h.77c.1,.41,.15,.93,.15,1.55s-.05,1.11-.15,1.55h1.16c.1,.41,.15,.93,.15,1.55s-.05,1.11-.15,1.55h.77c.1,.41,.15,.93,.15,1.55s-.05,1.11-.15,1.55c.1,.41,.15,.93,.15,1.55s-.05,1.11-.15,1.55h1.16c.1,.41,.15,.93,.15,1.55s-.05,1.11-.15,1.55Zm-4.41-7.73c0-.62,.05-1.13,.15-1.55h-.77c-.1-.44-.15-.95-.15-1.55s.05-1.13,.15-1.55h-2.32c.1,.41,.15,.93,.15,1.55s-.05,1.11-.15,1.55h-.77c.1,.41,.15,.93,.15,1.55s-.05,1.11-.15,1.55h3.87c-.1-.44-.15-.95-.15-1.55Z"/><path class="cls-1" d="M35.73,49.87c.1,.41,.15,.93,.15,1.55s-.05,1.11-.15,1.55h-1.55c.1,.41,.15,.93,.15,1.55s-.05,1.11-.15,1.55h-7.73c-.1-.44-.15-.95-.15-1.55s.05-1.13,.15-1.55h-1.55c-.1-.44-.15-.95-.15-1.55s.05-1.13,.15-1.55h-1.55c-.1-.44-.15-.95-.15-1.55s.05-1.13,.15-1.55c-.1-.44-.15-.95-.15-1.55s.05-1.13,.15-1.55c-.1-.44-.15-.95-.15-1.55s.05-1.13,.15-1.55h1.55c-.1-.44-.15-.95-.15-1.55s.05-1.13,.15-1.55h1.55c-.1-.44-.15-.95-.15-1.55s.05-1.13,.15-1.55h7.73c.1,.41,.15,.93,.15,1.55s-.05,1.11-.15,1.55h1.55c.1,.41,.15,.93,.15,1.55s-.05,1.11-.15,1.55h-3.09c-.1-.44-.15-.95-.15-1.55s.05-1.13,.15-1.55h-4.64c.1,.41,.15,.93,.15,1.55s-.05,1.11-.15,1.55h-1.55c.1,.41,.15,.93,.15,1.55s-.05,1.11-.15,1.55c.1,.41,.15,.93,.15,1.55s-.05,1.11-.15,1.55c.1,.41,.15,.93,.15,1.55s-.05,1.11-.15,1.55h1.55c.1,.41,.15,.93,.15,1.55s-.05,1.11-.15,1.55h4.64c-.1-.44-.15-.95-.15-1.55s.05-1.13,.15-1.55h3.09Z"/><path class="cls-1" d="M51.19,37.49h-4.64c.1,.41,.15,.93,.15,1.55s-.05,1.11-.15,1.55c.1,.41,.15,.93,.15,1.55s-.05,1.11-.15,1.55c.1,.41,.15,.93,.15,1.55s-.05,1.11-.15,1.55c.1,.41,.15,.93,.15,1.55s-.05,1.11-.15,1.55c.1,.41,.15,.93,.15,1.55s-.05,1.11-.15,1.55c.1,.41,.15,.93,.15,1.55s-.05,1.11-.15,1.55h-3.09c-.1-.44-.15-.95-.15-1.55s.05-1.13,.15-1.55c-.1-.44-.15-.95-.15-1.55s.05-1.13,.15-1.55c-.1-.44-.15-.95-.15-1.55s.05-1.13,.15-1.55c-.1-.44-.15-.95-.15-1.55s.05-1.13,.15-1.55c-.1-.44-.15-.95-.15-1.55s.05-1.13,.15-1.55c-.1-.44-.15-.95-.15-1.55s.05-1.13,.15-1.55h-4.64c-.1-.44-.15-.95-.15-1.55s.05-1.13,.15-1.55h12.37c.1,.41,.15,.93,.15,1.55s-.05,1.11-.15,1.55Z"/><path class="cls-1" d="M64.34,52.96c.1,.41,.15,.93,.15,1.55s-.05,1.11-.15,1.55h-7.73c-.1-.44-.15-.95-.15-1.55s.05-1.13,.15-1.55h2.32c-.1-.44-.15-.95-.15-1.55s.05-1.13,.15-1.55c-.1-.44-.15-.95-.15-1.55s.05-1.13,.15-1.55c-.1-.44-.15-.95-.15-1.55s.05-1.13,.15-1.55c-.1-.44-.15-.95-.15-1.55s.05-1.13,.15-1.55c-.1-.44-.15-.95-.15-1.55s.05-1.13,.15-1.55h-2.32c-.1-.44-.15-.95-.15-1.55s.05-1.13,.15-1.55h7.73c.1,.41,.15,.93,.15,1.55s-.05,1.11-.15,1.55h-2.32c.1,.41,.15,.93,.15,1.55s-.05,1.11-.15,1.55c.1,.41,.15,.93,.15,1.55s-.05,1.11-.15,1.55c.1,.41,.15,.93,.15,1.55s-.05,1.11-.15,1.55c.1,.41,.15,.93,.15,1.55s-.05,1.11-.15,1.55c.1,.41,.15,.93,.15,1.55s-.05,1.11-.15,1.55h2.32Z"/><path class="cls-1" d="M82.28,39.04c0,.59-.05,1.11-.15,1.55,.1,.41,.15,.93,.15,1.55s-.05,1.11-.15,1.55h-1.16c.1,.41,.15,.93,.15,1.55s-.05,1.11-.15,1.55h-1.16c.1,.41,.15,.93,.15,1.55s-.05,1.11-.15,1.55h-.77c.1,.41,.15,.93,.15,1.55s-.05,1.11-.15,1.55h-1.55c.1,.41,.15,.93,.15,1.55s-.05,1.11-.15,1.55h-3.09c-.1-.44-.15-.95-.15-1.55s.05-1.13,.15-1.55h-1.55c-.1-.44-.15-.95-.15-1.55s.05-1.13,.15-1.55h-.77c-.1-.44-.15-.95-.15-1.55s.05-1.13,.15-1.55h-1.16c-.1-.44-.15-.95-.15-1.55s.05-1.13,.15-1.55h-1.16c-.1-.44-.15-.95-.15-1.55s.05-1.13,.15-1.55c-.1-.44-.15-.95-.15-1.55s.05-1.13,.15-1.55c-.1-.44-.15-.95-.15-1.55s.05-1.13,.15-1.55h3.09c.1,.41,.15,.93,.15,1.55s-.05,1.11-.15,1.55c.1,.41,.15,.93,.15,1.55s-.05,1.11-.15,1.55c.1,.41,.15,.93,.15,1.55s-.05,1.11-.15,1.55h1.16c.1,.41,.15,.93,.15,1.55s-.05,1.11-.15,1.55h1.16c.1,.41,.15,.93,.15,1.55s-.05,1.11-.15,1.55h1.55c-.1-.44-.15-.95-.15-1.55s.05-1.13,.15-1.55h1.16c-.1-.44-.15-.95-.15-1.55s.05-1.13,.15-1.55h1.16c-.1-.44-.15-.95-.15-1.55s.05-1.13,.15-1.55c-.1-.44-.15-.95-.15-1.55s.05-1.13,.15-1.55c-.1-.44-.15-.95-.15-1.55s.05-1.13,.15-1.55h3.09c.1,.41,.15,.93,.15,1.55s-.05,1.11-.15,1.55c.1,.41,.15,.93,.15,1.55Z"/><path class="cls-1" d="M97.59,52.96c.1,.41,.15,.93,.15,1.55s-.05,1.11-.15,1.55h-3.09c-.1-.44-.15-.95-.15-1.55s.05-1.13,.15-1.55c-.1-.44-.15-.95-.15-1.55s.05-1.13,.15-1.55h-6.19c.1,.41,.15,.93,.15,1.55s-.05,1.11-.15,1.55c.1,.41,.15,.93,.15,1.55s-.05,1.11-.15,1.55h-3.09c-.1-.44-.15-.95-.15-1.55s.05-1.13,.15-1.55c-.1-.44-.15-.95-.15-1.55s.05-1.13,.15-1.55h1.16c-.1-.44-.15-.95-.15-1.55s.05-1.13,.15-1.55c-.1-.44-.15-.95-.15-1.55s.05-1.13,.15-1.55h.77c-.1-.44-.15-.95-.15-1.55s.05-1.13,.15-1.55h1.16c-.1-.44-.15-.95-.15-1.55s.05-1.13,.15-1.55h.77c-.1-.44-.15-.95-.15-1.55s.05-1.13,.15-1.55h4.64c.1,.41,.15,.93,.15,1.55s-.05,1.11-.15,1.55h.77c.1,.41,.15,.93,.15,1.55s-.05,1.11-.15,1.55h1.16c.1,.41,.15,.93,.15,1.55s-.05,1.11-.15,1.55h.77c.1,.41,.15,.93,.15,1.55s-.05,1.11-.15,1.55c.1,.41,.15,.93,.15,1.55s-.05,1.11-.15,1.55h1.16c.1,.41,.15,.93,.15,1.55s-.05,1.11-.15,1.55Zm-4.41-7.73c0-.62,.05-1.13,.15-1.55h-.77c-.1-.44-.15-.95-.15-1.55s.05-1.13,.15-1.55h-2.32c.1,.41,.15,.93,.15,1.55s-.05,1.11-.15,1.55h-.77c.1,.41,.15,.93,.15,1.55s-.05,1.11-.15,1.55h3.87c-.1-.44-.15-.95-.15-1.55Z"/><path class="cls-1" d="M113.06,37.49h-4.64c.1,.41,.15,.93,.15,1.55s-.05,1.11-.15,1.55c.1,.41,.15,.93,.15,1.55s-.05,1.11-.15,1.55c.1,.41,.15,.93,.15,1.55s-.05,1.11-.15,1.55c.1,.41,.15,.93,.15,1.55s-.05,1.11-.15,1.55c.1,.41,.15,.93,.15,1.55s-.05,1.11-.15,1.55c.1,.41,.15,.93,.15,1.55s-.05,1.11-.15,1.55h-3.09c-.1-.44-.15-.95-.15-1.55s.05-1.13,.15-1.55c-.1-.44-.15-.95-.15-1.55s.05-1.13,.15-1.55c-.1-.44-.15-.95-.15-1.55s.05-1.13,.15-1.55c-.1-.44-.15-.95-.15-1.55s.05-1.13,.15-1.55c-.1-.44-.15-.95-.15-1.55s.05-1.13,.15-1.55c-.1-.44-.15-.95-.15-1.55s.05-1.13,.15-1.55h-4.64c-.1-.44-.15-.95-.15-1.55s.05-1.13,.15-1.55h12.37c.1,.41,.15,.93,.15,1.55s-.05,1.11-.15,1.55Z"/><path class="cls-1" d="M120.79,46.77c.1,.41,.15,.93,.15,1.55s-.05,1.11-.15,1.55c.1,.41,.15,.93,.15,1.55s-.05,1.11-.15,1.55h6.19c.1,.41,.15,.93,.15,1.55s-.05,1.11-.15,1.55h-9.28c-.1-.44-.15-.95-.15-1.55s.05-1.13,.15-1.55c-.1-.44-.15-.95-.15-1.55s.05-1.13,.15-1.55c-.1-.44-.15-.95-.15-1.55s.05-1.13,.15-1.55c-.1-.44-.15-.95-.15-1.55s.05-1.13,.15-1.55c-.1-.44-.15-.95-.15-1.55s.05-1.13,.15-1.55c-.1-.44-.15-.95-.15-1.55s.05-1.13,.15-1.55c-.1-.44-.15-.95-.15-1.55s.05-1.13,.15-1.55h9.28c.1,.41,.15,.93,.15,1.55s-.05,1.11-.15,1.55h-6.19c.1,.41,.15,.93,.15,1.55s-.05,1.11-.15,1.55c.1,.41,.15,.93,.15,1.55s-.05,1.11-.15,1.55h6.19c.1,.41,.15,.93,.15,1.55s-.05,1.11-.15,1.55h-6.19Z"/><path class="cls-1" d="M144.14,45.23c0,.59-.05,1.11-.15,1.55,.1,.41,.15,.93,.15,1.55s-.05,1.11-.15,1.55h-1.55c.1,.41,.15,.93,.15,1.55s-.05,1.11-.15,1.55h-1.55c.1,.41,.15,.93,.15,1.55s-.05,1.11-.15,1.55h-9.28c-.1-.44-.15-.95-.15-1.55s.05-1.13,.15-1.55c-.1-.44-.15-.95-.15-1.55s.05-1.13,.15-1.55c-.1-.44-.15-.95-.15-1.55s.05-1.13,.15-1.55c-.1-.44-.15-.95-.15-1.55s.05-1.13,.15-1.55c-.1-.44-.15-.95-.15-1.55s.05-1.13,.15-1.55c-.1-.44-.15-.95-.15-1.55s.05-1.13,.15-1.55c-.1-.44-.15-.95-.15-1.55s.05-1.13,.15-1.55h9.28c.1,.41,.15,.93,.15,1.55s-.05,1.11-.15,1.55h1.55c.1,.41,.15,.93,.15,1.55s-.05,1.11-.15,1.55h1.55c.1,.41,.15,.93,.15,1.55s-.05,1.11-.15,1.55c.1,.41,.15,.93,.15,1.55Zm-3.4,3.09c0-.62,.05-1.13,.15-1.55-.1-.44-.15-.95-.15-1.55s.05-1.13,.15-1.55c-.1-.44-.15-.95-.15-1.55s.05-1.13,.15-1.55h-1.55c-.1-.44-.15-.95-.15-1.55s.05-1.13,.15-1.55h-4.64c.1,.41,.15,.93,.15,1.55s-.05,1.11-.15,1.55c.1,.41,.15,.93,.15,1.55s-.05,1.11-.15,1.55c.1,.41,.15,.93,.15,1.55s-.05,1.11-.15,1.55c.1,.41,.15,.93,.15,1.55s-.05,1.11-.15,1.55c.1,.41,.15,.93,.15,1.55s-.05,1.11-.15,1.55h4.64c-.1-.44-.15-.95-.15-1.55s.05-1.13,.15-1.55h1.55c-.1-.44-.15-.95-.15-1.55Z"/></g></g></svg>